<?xml version="1.0" encoding="UTF-8"?>
<!DOCTYPE svg PUBLIC "-//W3C//DTD SVG 1.1//EN" "http://www.w3.org/Graphics/SVG/1.1/DTD/svg11.dtd">
<svg xmlns="http://www.w3.org/2000/svg" version="1.1" width="500px" height="500px" style="shape-rendering:geometricPrecision; text-rendering:geometricPrecision; image-rendering:optimizeQuality; fill-rule:evenodd; clip-rule:evenodd" xmlns:xlink="http://www.w3.org/1999/xlink">
<g><path style="opacity:1" fill="#f3a277" d="M 174.5,136.5 C 181.989,135.344 189.655,135.178 197.5,136C 200.457,136.279 203.123,137.113 205.5,138.5C 203.167,138.5 200.833,138.5 198.5,138.5C 193.731,137.111 188.731,136.444 183.5,136.5C 180.5,136.5 177.5,136.5 174.5,136.5 Z"/></g>
<g><path style="opacity:1" fill="#feab33" d="M 305.5,136.5 C 308.207,140.269 311.041,143.935 314,147.5C 317.339,149.673 320.172,152.34 322.5,155.5C 323.325,156.386 324.325,156.719 325.5,156.5C 325.281,157.675 325.614,158.675 326.5,159.5C 329.732,160.73 332.399,162.73 334.5,165.5C 337.754,167.029 341.087,168.362 344.5,169.5C 345.386,170.325 345.719,171.325 345.5,172.5C 346.822,172.67 347.989,172.337 349,171.5C 353.999,174.666 358.165,178.666 361.5,183.5C 361.5,185.167 361.5,186.833 361.5,188.5C 357.848,185.107 353.514,182.94 348.5,182C 340.21,176.611 332.043,171.111 324,165.5C 322.991,163.975 322.491,162.308 322.5,160.5C 318.399,160.57 315.899,158.57 315,154.5C 310.608,150.695 306.441,146.695 302.5,142.5C 301.359,141.575 301.359,140.741 302.5,140C 300.563,139.878 299.23,139.045 298.5,137.5C 300.607,136.532 302.941,136.198 305.5,136.5 Z"/></g>
<g><path style="opacity:1" fill="#f7c47a" d="M 346.5,151.5 C 339.933,150.213 334.6,146.879 330.5,141.5C 327.397,139.688 324.064,138.688 320.5,138.5C 315.692,136.758 310.692,136.091 305.5,136.5C 302.941,136.198 300.607,136.532 298.5,137.5C 295.5,137.5 292.5,137.5 289.5,137.5C 308.046,132.561 325.38,135.395 341.5,146C 343.373,147.704 345.04,149.537 346.5,151.5 Z"/></g>
<g><path style="opacity:0.835" fill="#f7bc79" d="M 289.5,137.5 C 287.485,138.924 285.152,139.59 282.5,139.5C 284.515,138.076 286.848,137.41 289.5,137.5 Z"/></g>
<g><path style="opacity:1" fill="#fdb94f" d="M 320.5,138.5 C 324.064,138.688 327.397,139.688 330.5,141.5C 334.6,146.879 339.933,150.213 346.5,151.5C 347.757,154.427 349.757,156.761 352.5,158.5C 354.924,161.008 356.59,164.008 357.5,167.5C 355.137,166.534 353.137,165.034 351.5,163C 346.823,162.888 342.99,161.054 340,157.5C 339.667,157.833 339.333,158.167 339,158.5C 338.073,152.406 334.573,148.739 328.5,147.5C 328.709,146.914 329.043,146.414 329.5,146C 325.407,144.735 322.407,142.235 320.5,138.5 Z"/></g>
<g><path style="opacity:1" fill="#ee8d74" d="M 206.5,138.5 C 212.043,139.343 217.043,141.343 221.5,144.5C 218.873,143.908 216.206,143.575 213.5,143.5C 212.393,141.031 210.393,140.031 207.5,140.5C 207.167,139.833 206.833,139.167 206.5,138.5 Z"/></g>
<g><path style="opacity:1" fill="#f56a54" d="M 213.5,143.5 C 216.206,143.575 218.873,143.908 221.5,144.5C 223.153,144.66 224.486,145.326 225.5,146.5C 223.215,146.705 220.882,147.038 218.5,147.5C 212.159,152.344 206.325,157.678 201,163.5C 200.626,164.416 200.126,165.25 199.5,166C 200.624,166.249 201.624,166.749 202.5,167.5C 200.713,168.316 199.046,169.316 197.5,170.5C 200.065,171.59 202.065,173.59 203.5,176.5C 197.403,174.123 191.07,173.123 184.5,173.5C 188.312,172.676 192.312,172.176 196.5,172C 194.655,170.577 192.655,169.41 190.5,168.5C 192.516,166.316 194.683,164.316 197,162.5C 197.536,160.131 198.703,158.131 200.5,156.5C 200.291,155.914 199.957,155.414 199.5,155C 203.548,151.284 207.882,147.95 212.5,145C 210.729,144.465 210.396,143.631 211.5,142.5C 212.183,142.863 212.85,143.196 213.5,143.5 Z"/></g>
<g><path style="opacity:1" fill="#fd9c4e" d="M 174.5,136.5 C 177.5,136.5 180.5,136.5 183.5,136.5C 181.552,137.131 179.719,138.131 178,139.5C 177.667,138.833 177.333,138.167 177,137.5C 176.727,139.329 175.893,140.829 174.5,142C 174.833,142.333 175.167,142.667 175.5,143C 171.564,145.786 167.564,148.286 163.5,150.5C 159.872,151.318 156.705,152.985 154,155.5C 150.221,154.469 147.388,155.802 145.5,159.5C 143.821,157.896 141.821,157.229 139.5,157.5C 139.5,156.167 140.167,155.5 141.5,155.5C 143.833,153.833 145.833,151.833 147.5,149.5C 154.733,141.718 163.733,137.385 174.5,136.5 Z"/></g>
<g><path style="opacity:1" fill="#fe8e50" d="M 183.5,136.5 C 188.731,136.444 193.731,137.111 198.5,138.5C 192.471,141.179 187.138,144.846 182.5,149.5C 177.856,152.157 173.19,154.823 168.5,157.5C 166.576,155.305 164.909,152.972 163.5,150.5C 167.564,148.286 171.564,145.786 175.5,143C 175.167,142.667 174.833,142.333 174.5,142C 175.893,140.829 176.727,139.329 177,137.5C 177.333,138.167 177.667,138.833 178,139.5C 179.719,138.131 181.552,137.131 183.5,136.5 Z"/></g>
<g><path style="opacity:1" fill="#f7a252" d="M 277.5,141.5 C 277.167,142.5 276.5,143.167 275.5,143.5C 272.34,145.419 269.006,146.752 265.5,147.5C 268.902,144.465 272.902,142.465 277.5,141.5 Z"/></g>
<g><path style="opacity:1" fill="#f79546" d="M 265.5,147.5 C 265.262,149.404 264.262,150.738 262.5,151.5C 260.539,152.46 258.873,153.793 257.5,155.5C 256.368,154.646 255.035,154.646 253.5,155.5C 256.803,151.844 260.803,149.178 265.5,147.5 Z"/></g>
<g><path style="opacity:0.843" fill="#f5d1a1" d="M 346.5,151.5 C 349.243,153.239 351.243,155.573 352.5,158.5C 349.757,156.761 347.757,154.427 346.5,151.5 Z"/></g>
<g><path style="opacity:1" fill="#feb03d" d="M 305.5,136.5 C 310.692,136.091 315.692,136.758 320.5,138.5C 322.407,142.235 325.407,144.735 329.5,146C 329.043,146.414 328.709,146.914 328.5,147.5C 334.573,148.739 338.073,152.406 339,158.5C 339.333,158.167 339.667,157.833 340,157.5C 342.99,161.054 346.823,162.888 351.5,163C 353.137,165.034 355.137,166.534 357.5,167.5C 358.256,171.767 359.589,175.767 361.5,179.5C 361.5,180.833 361.5,182.167 361.5,183.5C 358.165,178.666 353.999,174.666 349,171.5C 347.989,172.337 346.822,172.67 345.5,172.5C 345.719,171.325 345.386,170.325 344.5,169.5C 341.087,168.362 337.754,167.029 334.5,165.5C 332.399,162.73 329.732,160.73 326.5,159.5C 325.614,158.675 325.281,157.675 325.5,156.5C 324.325,156.719 323.325,156.386 322.5,155.5C 320.172,152.34 317.339,149.673 314,147.5C 311.041,143.935 308.207,140.269 305.5,136.5 Z"/></g>
<g><path style="opacity:0.565" fill="#f4bd8a" d="M 147.5,149.5 C 145.833,151.833 143.833,153.833 141.5,155.5C 142.5,152.5 144.5,150.5 147.5,149.5 Z"/></g>
<g><path style="opacity:1" fill="#fe8e1f" d="M 275.5,143.5 C 277.424,145.583 279.591,147.583 282,149.5C 285.267,153.759 288.1,158.259 290.5,163C 293.121,164.618 295.454,166.618 297.5,169C 300.577,169.461 303.244,170.628 305.5,172.5C 299.828,172.76 294.161,173.093 288.5,173.5C 287.175,172.047 286.342,172.381 286,174.5C 284.333,173.167 282.667,173.167 281,174.5C 280.339,172.084 278.839,170.418 276.5,169.5C 276.709,168.914 277.043,168.414 277.5,168C 274.766,163.992 271.766,160.158 268.5,156.5C 266.123,155.415 263.789,154.248 261.5,153C 262.056,152.617 262.389,152.117 262.5,151.5C 264.262,150.738 265.262,149.404 265.5,147.5C 269.006,146.752 272.34,145.419 275.5,143.5 Z"/></g>
<g><path style="opacity:1" fill="#fd9042" d="M 163.5,150.5 C 164.909,152.972 166.576,155.305 168.5,157.5C 162.896,161.099 157.563,165.099 152.5,169.5C 147.236,170.419 142.57,172.586 138.5,176C 136.187,176.662 133.854,177.162 131.5,177.5C 131.324,180.727 130.657,183.727 129.5,186.5C 129.5,184.833 129.5,183.167 129.5,181.5C 129.366,179.708 129.699,178.042 130.5,176.5C 133.526,172.767 135.192,168.434 135.5,163.5C 135.845,160.802 137.178,158.802 139.5,157.5C 141.821,157.229 143.821,157.896 145.5,159.5C 147.388,155.802 150.221,154.469 154,155.5C 156.705,152.985 159.872,151.318 163.5,150.5 Z"/></g>
<g><path style="opacity:1" fill="#f97350" d="M 207.5,140.5 C 210.393,140.031 212.393,141.031 213.5,143.5C 212.85,143.196 212.183,142.863 211.5,142.5C 210.396,143.631 210.729,144.465 212.5,145C 207.882,147.95 203.548,151.284 199.5,155C 199.957,155.414 200.291,155.914 200.5,156.5C 198.703,158.131 197.536,160.131 197,162.5C 194.683,164.316 192.516,166.316 190.5,168.5C 192.655,169.41 194.655,170.577 196.5,172C 192.312,172.176 188.312,172.676 184.5,173.5C 182.299,174.566 179.965,175.233 177.5,175.5C 177.33,174.178 177.663,173.011 178.5,172C 177.044,171.577 176.544,170.744 177,169.5C 182.799,165.794 187.965,161.294 192.5,156C 190.193,154.172 190.526,152.506 193.5,151C 197.761,146.898 202.428,143.398 207.5,140.5 Z"/></g>
<g><path style="opacity:1" fill="#ed5654" d="M 225.5,146.5 C 230.024,148.043 234.024,150.377 237.5,153.5C 234.316,152.731 231.316,152.731 228.5,153.5C 229.167,154.167 229.833,154.833 230.5,155.5C 227.801,157.848 224.801,159.682 221.5,161C 222.196,162.488 221.862,163.988 220.5,165.5C 217.113,167.685 214.446,170.519 212.5,174C 213.38,175.356 213.714,176.856 213.5,178.5C 211.833,178.5 210.167,178.5 208.5,178.5C 206.597,178.204 204.93,177.537 203.5,176.5C 202.065,173.59 200.065,171.59 197.5,170.5C 199.046,169.316 200.713,168.316 202.5,167.5C 201.624,166.749 200.624,166.249 199.5,166C 200.126,165.25 200.626,164.416 201,163.5C 206.325,157.678 212.159,152.344 218.5,147.5C 220.882,147.038 223.215,146.705 225.5,146.5 Z"/></g>
<g><path style="opacity:1" fill="#fea52a" d="M 289.5,137.5 C 292.5,137.5 295.5,137.5 298.5,137.5C 299.23,139.045 300.563,139.878 302.5,140C 301.359,140.741 301.359,141.575 302.5,142.5C 306.441,146.695 310.608,150.695 315,154.5C 315.899,158.57 318.399,160.57 322.5,160.5C 322.491,162.308 322.991,163.975 324,165.5C 332.043,171.111 340.21,176.611 348.5,182C 353.514,182.94 357.848,185.107 361.5,188.5C 361.5,191.167 361.5,193.833 361.5,196.5C 358.249,195.104 355.083,193.438 352,191.5C 350.493,192.535 348.993,192.368 347.5,191C 347.833,190.667 348.167,190.333 348.5,190C 343.579,187.371 338.579,185.038 333.5,183C 329.311,178.718 324.811,175.551 320,173.5C 316.834,168.341 313,163.841 308.5,160C 306.998,157.994 307.331,156.328 309.5,155C 307.5,153.667 305.5,152.333 303.5,151C 301.833,148.667 300.167,146.333 298.5,144C 297.207,143.51 295.873,143.343 294.5,143.5C 294.649,142.448 294.483,141.448 294,140.5C 293.667,140.833 293.333,141.167 293,141.5C 292.261,140.426 291.261,139.759 290,139.5C 285.867,140.4 281.7,141.067 277.5,141.5C 278.93,140.463 280.597,139.796 282.5,139.5C 285.152,139.59 287.485,138.924 289.5,137.5 Z"/></g>
<g><path style="opacity:1" fill="#fd8244" d="M 182.5,149.5 C 183.028,150.847 183.195,152.181 183,153.5C 179.661,155.673 176.828,158.34 174.5,161.5C 175.687,162.519 176.687,163.686 177.5,165C 174.079,166.699 171.079,168.865 168.5,171.5C 166.089,172.517 164.422,174.184 163.5,176.5C 161.801,176.34 160.134,176.506 158.5,177C 158.833,177.333 159.167,177.667 159.5,178C 157.239,179.813 154.905,181.313 152.5,182.5C 151.838,180.53 151.172,178.53 150.5,176.5C 151.325,175.614 152.325,175.281 153.5,175.5C 153.33,174.178 153.663,173.011 154.5,172C 153.934,171.005 153.267,170.172 152.5,169.5C 157.563,165.099 162.896,161.099 168.5,157.5C 173.19,154.823 177.856,152.157 182.5,149.5 Z"/></g>
<g><path style="opacity:1" fill="#fc7d2c" d="M 257.5,155.5 C 257.33,156.822 257.663,157.989 258.5,159C 260.935,160.715 263.602,161.882 266.5,162.5C 265.974,165.808 267.307,167.974 270.5,169C 270.167,169.333 269.833,169.667 269.5,170C 270.833,170.667 272.167,171.333 273.5,172C 272.216,172.684 271.049,172.517 270,171.5C 269.5,172 269,172.5 268.5,173C 271.368,175.705 274.368,178.205 277.5,180.5C 277.5,181.167 277.5,181.833 277.5,182.5C 274.816,180.807 272.149,179.14 269.5,177.5C 264.473,173.147 259.14,169.147 253.5,165.5C 251.192,163.529 248.858,161.529 246.5,159.5C 246.5,159.167 246.5,158.833 246.5,158.5C 248.687,157.242 251.02,156.242 253.5,155.5C 255.035,154.646 256.368,154.646 257.5,155.5 Z"/></g>
<g><path style="opacity:1" fill="#fe9e24" d="M 361.5,196.5 C 361.5,199.833 361.5,203.167 361.5,206.5C 361.784,208.415 361.451,210.081 360.5,211.5C 360.817,208.428 360.484,205.428 359.5,202.5C 359.511,203.441 359.011,204.108 358,204.5C 356.604,203.606 355.104,202.939 353.5,202.5C 352.136,203.043 350.803,203.21 349.5,203C 344.279,198.616 338.612,194.95 332.5,192C 332.957,191.586 333.291,191.086 333.5,190.5C 331.139,188.796 328.806,187.129 326.5,185.5C 325.772,183.488 324.938,181.488 324,179.5C 321.709,180.311 319.875,179.477 318.5,177C 317.207,176.51 315.873,176.343 314.5,176.5C 311.543,175.345 308.543,174.345 305.5,173.5C 305.5,173.167 305.5,172.833 305.5,172.5C 303.244,170.628 300.577,169.461 297.5,169C 295.454,166.618 293.121,164.618 290.5,163C 288.1,158.259 285.267,153.759 282,149.5C 279.591,147.583 277.424,145.583 275.5,143.5C 276.5,143.167 277.167,142.5 277.5,141.5C 281.7,141.067 285.867,140.4 290,139.5C 291.261,139.759 292.261,140.426 293,141.5C 293.333,141.167 293.667,140.833 294,140.5C 294.483,141.448 294.649,142.448 294.5,143.5C 295.873,143.343 297.207,143.51 298.5,144C 300.167,146.333 301.833,148.667 303.5,151C 305.5,152.333 307.5,153.667 309.5,155C 307.331,156.328 306.998,157.994 308.5,160C 313,163.841 316.834,168.341 320,173.5C 324.811,175.551 329.311,178.718 333.5,183C 338.579,185.038 343.579,187.371 348.5,190C 348.167,190.333 347.833,190.667 347.5,191C 348.993,192.368 350.493,192.535 352,191.5C 355.083,193.438 358.249,195.104 361.5,196.5 Z"/></g>
<g><path style="opacity:1" fill="#e34556" d="M 237.5,153.5 C 240.661,154.913 243.661,156.58 246.5,158.5C 246.5,158.833 246.5,159.167 246.5,159.5C 243.87,158.527 241.37,158.194 239,158.5C 236.966,159.743 236.133,161.243 236.5,163C 231.13,162.961 228.963,165.461 230,170.5C 227.54,173.582 224.706,176.249 221.5,178.5C 221.833,179.167 222.167,179.833 222.5,180.5C 219.513,181.795 218.846,183.795 220.5,186.5C 219.395,185.4 218.062,184.733 216.5,184.5C 213.833,182.5 211.167,180.5 208.5,178.5C 210.167,178.5 211.833,178.5 213.5,178.5C 213.714,176.856 213.38,175.356 212.5,174C 214.446,170.519 217.113,167.685 220.5,165.5C 221.862,163.988 222.196,162.488 221.5,161C 224.801,159.682 227.801,157.848 230.5,155.5C 229.833,154.833 229.167,154.167 228.5,153.5C 231.316,152.731 234.316,152.731 237.5,153.5 Z"/></g>
<g><path style="opacity:1" fill="#fd8622" d="M 262.5,151.5 C 262.389,152.117 262.056,152.617 261.5,153C 263.789,154.248 266.123,155.415 268.5,156.5C 271.766,160.158 274.766,163.992 277.5,168C 277.043,168.414 276.709,168.914 276.5,169.5C 278.839,170.418 280.339,172.084 281,174.5C 282.667,173.167 284.333,173.167 286,174.5C 286.342,172.381 287.175,172.047 288.5,173.5C 286.721,175.344 284.388,176.01 281.5,175.5C 281.5,176.5 281.5,177.5 281.5,178.5C 280.486,179.674 279.153,180.34 277.5,180.5C 274.368,178.205 271.368,175.705 268.5,173C 269,172.5 269.5,172 270,171.5C 271.049,172.517 272.216,172.684 273.5,172C 272.167,171.333 270.833,170.667 269.5,170C 269.833,169.667 270.167,169.333 270.5,169C 267.307,167.974 265.974,165.808 266.5,162.5C 263.602,161.882 260.935,160.715 258.5,159C 257.663,157.989 257.33,156.822 257.5,155.5C 258.873,153.793 260.539,152.46 262.5,151.5 Z"/></g>
<g><path style="opacity:1" fill="#fb7d4e" d="M 198.5,138.5 C 200.833,138.5 203.167,138.5 205.5,138.5C 205.833,138.5 206.167,138.5 206.5,138.5C 206.833,139.167 207.167,139.833 207.5,140.5C 202.428,143.398 197.761,146.898 193.5,151C 190.526,152.506 190.193,154.172 192.5,156C 187.965,161.294 182.799,165.794 177,169.5C 176.544,170.744 177.044,171.577 178.5,172C 177.663,173.011 177.33,174.178 177.5,175.5C 172.438,179.231 168.438,183.897 165.5,189.5C 164.189,186.08 164.356,182.747 166,179.5C 166.333,180.5 166.667,181.5 167,182.5C 167.645,181.354 168.478,180.354 169.5,179.5C 168.572,178.232 168.405,176.899 169,175.5C 170.243,176.336 171.41,176.003 172.5,174.5C 171.923,172.45 170.59,171.45 168.5,171.5C 171.079,168.865 174.079,166.699 177.5,165C 176.687,163.686 175.687,162.519 174.5,161.5C 176.828,158.34 179.661,155.673 183,153.5C 183.195,152.181 183.028,150.847 182.5,149.5C 187.138,144.846 192.471,141.179 198.5,138.5 Z"/></g>
<g><path style="opacity:1" fill="#f5a668" d="M 135.5,163.5 C 135.192,168.434 133.526,172.767 130.5,176.5C 131.37,171.777 133.036,167.444 135.5,163.5 Z"/></g>
<g><path style="opacity:0.988" fill="#f3c286" d="M 357.5,167.5 C 359.806,171.085 361.139,175.085 361.5,179.5C 359.589,175.767 358.256,171.767 357.5,167.5 Z"/></g>
<g><path style="opacity:1" fill="#cc255d" d="M 253.5,165.5 C 259.14,169.147 264.473,173.147 269.5,177.5C 268.504,177.414 267.671,177.748 267,178.5C 265.902,177.033 264.402,176.199 262.5,176C 262.957,175.586 263.291,175.086 263.5,174.5C 260.525,173.712 257.692,173.379 255,173.5C 253.887,174.76 253.72,175.927 254.5,177C 252.945,178.646 251.279,178.979 249.5,178C 246.422,180.323 243.922,183.157 242,186.5C 241.667,186.167 241.333,185.833 241,185.5C 239.237,188.02 237.237,190.353 235,192.5C 234.51,193.793 234.343,195.127 234.5,196.5C 237.264,196.999 238.931,198.665 239.5,201.5C 237.475,199.804 235.475,198.137 233.5,196.5C 232.19,194.852 230.857,193.186 229.5,191.5C 230.192,189.665 229.858,187.832 228.5,186C 230.394,184.899 231.061,183.566 230.5,182C 234.695,179.926 238.029,176.926 240.5,173C 240.043,172.586 239.709,172.086 239.5,171.5C 241.194,169.139 243.194,167.139 245.5,165.5C 248.044,165.051 250.71,165.051 253.5,165.5 Z"/></g>
<g><path style="opacity:1" fill="#f5a256" d="M 305.5,172.5 C 305.5,172.833 305.5,173.167 305.5,173.5C 297.176,173.688 289.176,175.355 281.5,178.5C 281.5,177.5 281.5,176.5 281.5,175.5C 284.388,176.01 286.721,175.344 288.5,173.5C 294.161,173.093 299.828,172.76 305.5,172.5 Z"/></g>
<g><path style="opacity:1" fill="#d53058" d="M 246.5,159.5 C 248.858,161.529 251.192,163.529 253.5,165.5C 250.71,165.051 248.044,165.051 245.5,165.5C 243.194,167.139 241.194,169.139 239.5,171.5C 239.709,172.086 240.043,172.586 240.5,173C 238.029,176.926 234.695,179.926 230.5,182C 231.061,183.566 230.394,184.899 228.5,186C 229.858,187.832 230.192,189.665 229.5,191.5C 230.857,193.186 232.19,194.852 233.5,196.5C 229.021,193.757 224.688,190.757 220.5,187.5C 220.5,187.167 220.5,186.833 220.5,186.5C 218.846,183.795 219.513,181.795 222.5,180.5C 222.167,179.833 221.833,179.167 221.5,178.5C 224.706,176.249 227.54,173.582 230,170.5C 228.963,165.461 231.13,162.961 236.5,163C 236.133,161.243 236.966,159.743 239,158.5C 241.37,158.194 243.87,158.527 246.5,159.5 Z"/></g>
<g><path style="opacity:1" fill="#bd1763" d="M 269.5,177.5 C 269.714,179.144 269.38,180.644 268.5,182C 270.853,184.133 271.853,186.8 271.5,190C 270.684,194.056 269.018,197.723 266.5,201C 267.825,201.221 269.158,202.221 270.5,204C 270.095,204.945 269.428,205.612 268.5,206C 267.831,211.003 267.831,216.17 268.5,221.5C 260.667,217.084 253,212.418 245.5,207.5C 243.806,205.139 241.806,203.139 239.5,201.5C 238.931,198.665 237.264,196.999 234.5,196.5C 234.343,195.127 234.51,193.793 235,192.5C 237.237,190.353 239.237,188.02 241,185.5C 241.333,185.833 241.667,186.167 242,186.5C 243.922,183.157 246.422,180.323 249.5,178C 251.279,178.979 252.945,178.646 254.5,177C 253.72,175.927 253.887,174.76 255,173.5C 257.692,173.379 260.525,173.712 263.5,174.5C 263.291,175.086 262.957,175.586 262.5,176C 264.402,176.199 265.902,177.033 267,178.5C 267.671,177.748 268.504,177.414 269.5,177.5 Z"/></g>
<g><path style="opacity:1" fill="#f9753f" d="M 168.5,171.5 C 170.59,171.45 171.923,172.45 172.5,174.5C 171.41,176.003 170.243,176.336 169,175.5C 168.405,176.899 168.572,178.232 169.5,179.5C 168.478,180.354 167.645,181.354 167,182.5C 166.667,181.5 166.333,180.5 166,179.5C 164.356,182.747 164.189,186.08 165.5,189.5C 164.756,193.119 164.423,196.785 164.5,200.5C 164.167,200.5 163.833,200.5 163.5,200.5C 163.823,196.774 163.489,193.107 162.5,189.5C 161.473,188.209 160.473,188.209 159.5,189.5C 158.268,185.964 159.268,182.964 162.5,180.5C 163.246,179.264 163.579,177.93 163.5,176.5C 164.422,174.184 166.089,172.517 168.5,171.5 Z"/></g>
<g><path style="opacity:1" fill="#f8a852" d="M 314.5,176.5 C 315.873,176.343 317.207,176.51 318.5,177C 319.875,179.477 321.709,180.311 324,179.5C 324.938,181.488 325.772,183.488 326.5,185.5C 326.178,186.858 326.178,188.525 326.5,190.5C 324.284,184.285 320.284,179.619 314.5,176.5 Z"/></g>
<g><path style="opacity:1" fill="#fe8032" d="M 152.5,169.5 C 153.267,170.172 153.934,171.005 154.5,172C 153.663,173.011 153.33,174.178 153.5,175.5C 152.325,175.281 151.325,175.614 150.5,176.5C 151.172,178.53 151.838,180.53 152.5,182.5C 150.747,184.223 148.747,185.723 146.5,187C 146.833,187.333 147.167,187.667 147.5,188C 145.578,189.46 144.911,191.127 145.5,193C 142.605,195.199 139.439,196.699 136,197.5C 134.439,197.397 132.939,197.063 131.5,196.5C 130.526,198.743 130.192,201.076 130.5,203.5C 129.511,198.025 129.178,192.358 129.5,186.5C 130.657,183.727 131.324,180.727 131.5,177.5C 133.854,177.162 136.187,176.662 138.5,176C 142.57,172.586 147.236,170.419 152.5,169.5 Z"/></g>
<g><path style="opacity:1" fill="#fe7533" d="M 163.5,176.5 C 163.579,177.93 163.246,179.264 162.5,180.5C 159.268,182.964 158.268,185.964 159.5,189.5C 158.836,191.487 157.669,193.154 156,194.5C 155.667,194.167 155.333,193.833 155,193.5C 151.315,195.933 147.481,198.266 143.5,200.5C 142.914,200.291 142.414,199.957 142,199.5C 138.097,200.983 134.264,202.649 130.5,204.5C 130.5,204.167 130.5,203.833 130.5,203.5C 130.192,201.076 130.526,198.743 131.5,196.5C 132.939,197.063 134.439,197.397 136,197.5C 139.439,196.699 142.605,195.199 145.5,193C 144.911,191.127 145.578,189.46 147.5,188C 147.167,187.667 146.833,187.333 146.5,187C 148.747,185.723 150.747,184.223 152.5,182.5C 154.905,181.313 157.239,179.813 159.5,178C 159.167,177.667 158.833,177.333 158.5,177C 160.134,176.506 161.801,176.34 163.5,176.5 Z"/></g>
<g><path style="opacity:1" fill="#c1185f" d="M 269.5,177.5 C 272.149,179.14 274.816,180.807 277.5,182.5C 282.045,185.266 286.378,188.266 290.5,191.5C 288.224,193.719 286.391,193.052 285,189.5C 284.667,189.833 284.333,190.167 284,190.5C 283.517,189.552 283.351,188.552 283.5,187.5C 282.127,187.343 280.793,187.51 279.5,188C 281.394,189.101 282.061,190.434 281.5,192C 278.407,196.833 275.74,201.499 273.5,206C 272.817,209.681 272.817,213.515 273.5,217.5C 276.718,217.651 277.051,218.484 274.5,220C 277.276,221.779 276.943,222.779 273.5,223C 274.381,223.708 275.047,224.542 275.5,225.5C 272.996,224.416 270.663,223.083 268.5,221.5C 267.831,216.17 267.831,211.003 268.5,206C 269.428,205.612 270.095,204.945 270.5,204C 269.158,202.221 267.825,201.221 266.5,201C 269.018,197.723 270.684,194.056 271.5,190C 271.853,186.8 270.853,184.133 268.5,182C 269.38,180.644 269.714,179.144 269.5,177.5 Z"/></g>
<g><path style="opacity:0.799" fill="#ef8e5a" d="M 129.5,181.5 C 129.5,183.167 129.5,184.833 129.5,186.5C 129.178,192.358 129.511,198.025 130.5,203.5C 130.5,203.833 130.5,204.167 130.5,204.5C 131.207,207.786 131.54,211.119 131.5,214.5C 130.239,211.742 129.406,208.742 129,205.5C 128.177,197.323 128.344,189.323 129.5,181.5 Z"/></g>
<g><path style="opacity:1" fill="#c5175a" d="M 290.5,191.5 C 292.027,191.427 293.027,192.094 293.5,193.5C 292.603,194.598 291.77,194.598 291,193.5C 290.667,194.5 290.333,195.5 290,196.5C 287.419,197.39 286.086,199.057 286,201.5C 287.615,199.095 288.281,199.095 288,201.5C 286.989,202.337 285.822,202.67 284.5,202.5C 283.601,206.364 282.601,210.197 281.5,214C 281.354,216.034 282.02,217.701 283.5,219C 281.576,223.352 282.243,227.518 285.5,231.5C 281.9,229.89 278.566,227.89 275.5,225.5C 275.047,224.542 274.381,223.708 273.5,223C 276.943,222.779 277.276,221.779 274.5,220C 277.051,218.484 276.718,217.651 273.5,217.5C 272.817,213.515 272.817,209.681 273.5,206C 275.74,201.499 278.407,196.833 281.5,192C 282.061,190.434 281.394,189.101 279.5,188C 280.793,187.51 282.127,187.343 283.5,187.5C 283.351,188.552 283.517,189.552 284,190.5C 284.333,190.167 284.667,189.833 285,189.5C 286.391,193.052 288.224,193.719 290.5,191.5 Z"/></g>
<g><path style="opacity:1" fill="#fe991e" d="M 326.5,185.5 C 328.806,187.129 331.139,188.796 333.5,190.5C 333.291,191.086 332.957,191.586 332.5,192C 338.612,194.95 344.279,198.616 349.5,203C 350.803,203.21 352.136,203.043 353.5,202.5C 355.104,202.939 356.604,203.606 358,204.5C 359.011,204.108 359.511,203.441 359.5,202.5C 360.484,205.428 360.817,208.428 360.5,211.5C 360.5,211.833 360.5,212.167 360.5,212.5C 357.863,214.482 356.53,217.148 356.5,220.5C 355.061,219.491 353.728,219.824 352.5,221.5C 351.369,220.249 350.036,219.249 348.5,218.5C 347.833,218.667 347.167,218.833 346.5,219C 347.696,219.654 347.696,220.154 346.5,220.5C 345.614,219.675 345.281,218.675 345.5,217.5C 342.77,216.023 340.27,214.69 338,213.5C 337.64,211.579 336.806,209.912 335.5,208.5C 335.977,207.522 336.643,206.689 337.5,206C 335.527,205.505 333.527,205.338 331.5,205.5C 331.313,203.436 330.813,201.436 330,199.5C 329.148,200.571 328.315,201.571 327.5,202.5C 327.495,198.466 327.162,194.466 326.5,190.5C 326.178,188.525 326.178,186.858 326.5,185.5 Z"/></g>
<g><path style="opacity:1" fill="#fc4d34" d="M 216.5,188.5 C 217.598,189.397 217.598,190.23 216.5,191C 217.678,191.967 219.011,192.467 220.5,192.5C 219.109,194.936 219.609,195.602 222,194.5C 222.93,196.552 224.43,198.052 226.5,199C 226.167,199.333 225.833,199.667 225.5,200C 227.847,202.064 229.514,204.064 230.5,206C 231.416,206.374 232.25,206.874 233,207.5C 233.308,206.692 233.808,206.025 234.5,205.5C 235.527,207.553 236.527,209.553 237.5,211.5C 233.275,211.772 230.275,213.772 228.5,217.5C 227.817,217.137 227.15,216.804 226.5,216.5C 225.308,215.434 225.641,214.601 227.5,214C 225.779,212.473 223.779,211.473 221.5,211C 221.5,209.333 221.5,207.667 221.5,206C 219.294,203.136 217.128,200.303 215,197.5C 215.155,195.189 215.155,192.856 215,190.5C 213.951,191.517 212.784,191.684 211.5,191C 212.787,189.59 213.954,188.09 215,186.5C 215.278,187.416 215.778,188.082 216.5,188.5 Z"/></g>
<g><path style="opacity:1" fill="#f1574e" d="M 205.5,192.5 C 205.414,193.496 205.748,194.329 206.5,195C 204.595,196.421 202.595,197.588 200.5,198.5C 196.892,198.464 194.559,200.131 193.5,203.5C 191.621,204.341 189.621,204.675 187.5,204.5C 193.148,200.007 199.148,196.007 205.5,192.5 Z"/></g>
<g><path style="opacity:1" fill="#fa4a3b" d="M 216.5,184.5 C 218.062,184.733 219.395,185.4 220.5,186.5C 220.5,186.833 220.5,187.167 220.5,187.5C 219.041,187.433 217.708,187.766 216.5,188.5C 215.778,188.082 215.278,187.416 215,186.5C 213.954,188.09 212.787,189.59 211.5,191C 212.784,191.684 213.951,191.517 215,190.5C 215.155,192.856 215.155,195.189 215,197.5C 217.128,200.303 219.294,203.136 221.5,206C 221.5,207.667 221.5,209.333 221.5,211C 223.779,211.473 225.779,212.473 227.5,214C 225.641,214.601 225.308,215.434 226.5,216.5C 226.5,217.833 226.5,219.167 226.5,220.5C 225.833,220.833 225.167,221.167 224.5,221.5C 223.209,221.737 222.209,221.404 221.5,220.5C 220.496,219.317 219.662,217.984 219,216.5C 218.333,217.833 217.667,217.833 217,216.5C 213.785,210.612 209.451,205.612 204,201.5C 203.667,201.833 203.333,202.167 203,202.5C 201.915,201.264 201.082,199.931 200.5,198.5C 202.595,197.588 204.595,196.421 206.5,195C 205.748,194.329 205.414,193.496 205.5,192.5C 208.597,189.112 212.264,186.445 216.5,184.5 Z"/></g>
<g><path style="opacity:0.902" fill="#f2b774" d="M 361.5,179.5 C 364.112,188.496 364.112,197.496 361.5,206.5C 361.5,203.167 361.5,199.833 361.5,196.5C 361.5,193.833 361.5,191.167 361.5,188.5C 361.5,186.833 361.5,185.167 361.5,183.5C 361.5,182.167 361.5,180.833 361.5,179.5 Z"/></g>
<g><path style="opacity:1" fill="#cb1a54" d="M 293.5,193.5 C 299.668,196.08 305.335,199.414 310.5,203.5C 308.643,204.098 306.977,204.098 305.5,203.5C 306.016,202.242 305.35,201.242 303.5,200.5C 302.808,201.025 302.308,201.692 302,202.5C 301.25,201.874 300.416,201.374 299.5,201C 300.336,199.757 300.003,198.59 298.5,197.5C 296.823,202.538 294.49,207.704 291.5,213C 290.994,215.17 290.994,217.504 291.5,220C 291.095,220.945 290.428,221.612 289.5,222C 290.103,223.825 290.77,225.659 291.5,227.5C 293.002,228.083 294.335,228.916 295.5,230C 295.167,230.333 294.833,230.667 294.5,231C 295.117,233.277 295.784,235.444 296.5,237.5C 296.5,237.833 296.5,238.167 296.5,238.5C 292.561,236.554 288.894,234.221 285.5,231.5C 282.243,227.518 281.576,223.352 283.5,219C 282.02,217.701 281.354,216.034 281.5,214C 282.601,210.197 283.601,206.364 284.5,202.5C 285.822,202.67 286.989,202.337 288,201.5C 288.281,199.095 287.615,199.095 286,201.5C 286.086,199.057 287.419,197.39 290,196.5C 290.333,195.5 290.667,194.5 291,193.5C 291.77,194.598 292.603,194.598 293.5,193.5 Z"/></g>
<g><path style="opacity:1" fill="#fd6c30" d="M 163.5,200.5 C 162.055,202.133 160.721,203.966 159.5,206C 155.462,206.899 151.795,208.566 148.5,211C 144.469,211.481 140.469,212.147 136.5,213C 136.48,214.715 135.814,216.548 134.5,218.5C 135.393,221.084 135.726,223.751 135.5,226.5C 133.595,222.784 132.261,218.784 131.5,214.5C 131.54,211.119 131.207,207.786 130.5,204.5C 134.264,202.649 138.097,200.983 142,199.5C 142.414,199.957 142.914,200.291 143.5,200.5C 147.481,198.266 151.315,195.933 155,193.5C 155.333,193.833 155.667,194.167 156,194.5C 157.669,193.154 158.836,191.487 159.5,189.5C 160.473,188.209 161.473,188.209 162.5,189.5C 163.489,193.107 163.823,196.774 163.5,200.5 Z"/></g>
<g><path style="opacity:1" fill="#fb5733" d="M 220.5,187.5 C 224.688,190.757 229.021,193.757 233.5,196.5C 235.475,198.137 237.475,199.804 239.5,201.5C 241.806,203.139 243.806,205.139 245.5,207.5C 243.5,208.833 241.5,210.167 239.5,211.5C 238.833,211.5 238.167,211.5 237.5,211.5C 236.527,209.553 235.527,207.553 234.5,205.5C 233.808,206.025 233.308,206.692 233,207.5C 232.25,206.874 231.416,206.374 230.5,206C 229.514,204.064 227.847,202.064 225.5,200C 225.833,199.667 226.167,199.333 226.5,199C 224.43,198.052 222.93,196.552 222,194.5C 219.609,195.602 219.109,194.936 220.5,192.5C 219.011,192.467 217.678,191.967 216.5,191C 217.598,190.23 217.598,189.397 216.5,188.5C 217.708,187.766 219.041,187.433 220.5,187.5 Z"/></g>
<g><path style="opacity:1" fill="#fd921f" d="M 356.5,220.5 C 356.5,221.5 356.5,222.5 356.5,223.5C 354.674,228.484 352.341,233.151 349.5,237.5C 346.542,234.94 344.042,231.94 342,228.5C 339.253,225.246 336.086,222.58 332.5,220.5C 329.874,218.177 327.207,215.843 324.5,213.5C 323.833,213.5 323.5,213.167 323.5,212.5C 325.428,209.378 326.761,206.045 327.5,202.5C 328.315,201.571 329.148,200.571 330,199.5C 330.813,201.436 331.313,203.436 331.5,205.5C 333.527,205.338 335.527,205.505 337.5,206C 336.643,206.689 335.977,207.522 335.5,208.5C 336.806,209.912 337.64,211.579 338,213.5C 340.27,214.69 342.77,216.023 345.5,217.5C 345.281,218.675 345.614,219.675 346.5,220.5C 347.696,220.154 347.696,219.654 346.5,219C 347.167,218.833 347.833,218.667 348.5,218.5C 350.036,219.249 351.369,220.249 352.5,221.5C 353.728,219.824 355.061,219.491 356.5,220.5 Z"/></g>
<g><path style="opacity:1" fill="#d81e47" d="M 314.5,206.5 C 316.853,207.34 318.853,208.674 320.5,210.5C 316.925,209.107 315.925,210.274 317.5,214C 315.854,215.555 315.521,217.221 316.5,219C 315.064,221.643 312.897,223.477 310,224.5C 309.22,227.512 308.053,230.345 306.5,233C 307.517,234.049 307.684,235.216 307,236.5C 306.085,237.328 305.419,238.328 305,239.5C 303.251,238.447 301.751,238.78 300.5,240.5C 299.833,240.5 299.167,240.5 298.5,240.5C 298.5,239.833 298.167,239.5 297.5,239.5C 296.833,239.5 296.5,239.167 296.5,238.5C 296.5,238.167 296.5,237.833 296.5,237.5C 297.209,236.596 298.209,236.263 299.5,236.5C 299.756,234.208 299.423,232.041 298.5,230C 299.858,228.168 300.192,226.335 299.5,224.5C 301.757,219.491 304.423,214.657 307.5,210C 307.167,209.667 306.833,209.333 306.5,209C 307.833,208.667 309.167,208.333 310.5,208C 308.205,207.016 308.539,206.183 311.5,205.5C 312.213,207.435 313.213,207.768 314.5,206.5 Z"/></g>
<g><path style="opacity:1" fill="#f83f3b" d="M 200.5,198.5 C 201.082,199.931 201.915,201.264 203,202.5C 203.333,202.167 203.667,201.833 204,201.5C 209.451,205.612 213.785,210.612 217,216.5C 217.667,217.833 218.333,217.833 219,216.5C 219.662,217.984 220.496,219.317 221.5,220.5C 220.596,221.209 220.263,222.209 220.5,223.5C 218.833,223.5 217.167,223.5 215.5,223.5C 215.5,224.5 215.5,225.5 215.5,226.5C 212.212,226.016 209.545,227.016 207.5,229.5C 205.952,229.179 205.285,228.179 205.5,226.5C 201.44,226.09 199.44,223.756 199.5,219.5C 200.01,217.912 201.01,216.745 202.5,216C 201.257,214.846 200.257,213.512 199.5,212C 200.744,211.544 201.577,212.044 202,213.5C 202.483,212.552 202.649,211.552 202.5,210.5C 201.5,210.5 200.5,210.5 199.5,210.5C 199.741,206.446 198.074,205.113 194.5,206.5C 193.614,205.675 193.281,204.675 193.5,203.5C 194.559,200.131 196.892,198.464 200.5,198.5 Z"/></g>
<g><path style="opacity:1" fill="#d3194c" d="M 310.5,203.5 C 312.23,204.026 313.564,205.026 314.5,206.5C 313.213,207.768 312.213,207.435 311.5,205.5C 308.539,206.183 308.205,207.016 310.5,208C 309.167,208.333 307.833,208.667 306.5,209C 306.833,209.333 307.167,209.667 307.5,210C 304.423,214.657 301.757,219.491 299.5,224.5C 300.192,226.335 299.858,228.168 298.5,230C 299.423,232.041 299.756,234.208 299.5,236.5C 298.209,236.263 297.209,236.596 296.5,237.5C 295.784,235.444 295.117,233.277 294.5,231C 294.833,230.667 295.167,230.333 295.5,230C 294.335,228.916 293.002,228.083 291.5,227.5C 290.77,225.659 290.103,223.825 289.5,222C 290.428,221.612 291.095,220.945 291.5,220C 290.994,217.504 290.994,215.17 291.5,213C 294.49,207.704 296.823,202.538 298.5,197.5C 300.003,198.59 300.336,199.757 299.5,201C 300.416,201.374 301.25,201.874 302,202.5C 302.308,201.692 302.808,201.025 303.5,200.5C 305.35,201.242 306.016,202.242 305.5,203.5C 306.977,204.098 308.643,204.098 310.5,203.5 Z"/></g>
<g><path style="opacity:1" fill="#dd1f41" d="M 320.5,210.5 C 321.5,211.167 322.5,211.833 323.5,212.5C 323.5,213.167 323.833,213.5 324.5,213.5C 324.185,215.226 324.019,216.893 324,218.5C 325.77,217.724 327.603,217.89 329.5,219C 327.699,219.317 327.366,219.984 328.5,221C 323.513,221.645 321.847,224.312 323.5,229C 320.023,230.3 318.69,232.633 319.5,236C 317.875,236.853 317.542,237.853 318.5,239C 317.167,239.333 315.833,239.667 314.5,240C 314.833,240.333 315.167,240.667 315.5,241C 314.761,244.073 312.928,246.24 310,247.5C 308.312,244.597 305.812,242.93 302.5,242.5C 301.5,242.167 300.833,241.5 300.5,240.5C 301.751,238.78 303.251,238.447 305,239.5C 305.419,238.328 306.085,237.328 307,236.5C 307.684,235.216 307.517,234.049 306.5,233C 308.053,230.345 309.22,227.512 310,224.5C 312.897,223.477 315.064,221.643 316.5,219C 315.521,217.221 315.854,215.555 317.5,214C 315.925,210.274 316.925,209.107 320.5,210.5 Z"/></g>
<g><path style="opacity:1" fill="#f53540" d="M 193.5,203.5 C 193.281,204.675 193.614,205.675 194.5,206.5C 198.074,205.113 199.741,206.446 199.5,210.5C 200.5,210.5 201.5,210.5 202.5,210.5C 202.649,211.552 202.483,212.552 202,213.5C 201.577,212.044 200.744,211.544 199.5,212C 200.257,213.512 201.257,214.846 202.5,216C 201.01,216.745 200.01,217.912 199.5,219.5C 199.44,223.756 201.44,226.09 205.5,226.5C 205.285,228.179 205.952,229.179 207.5,229.5C 206.77,231.045 205.437,231.878 203.5,232C 203.833,232.333 204.167,232.667 204.5,233C 202.797,233.745 201.13,234.579 199.5,235.5C 195.724,234.342 194.724,235.675 196.5,239.5C 196.167,239.5 195.833,239.5 195.5,239.5C 194.5,239.5 193.5,239.5 192.5,239.5C 189.527,237.194 186.86,234.527 184.5,231.5C 185.583,231.539 186.583,231.873 187.5,232.5C 189.667,230.17 191.334,227.503 192.5,224.5C 191.376,223.086 190.376,221.586 189.5,220C 190.167,219.667 190.833,219.333 191.5,219C 191.165,217.133 190.665,214.966 190,212.5C 188.902,211.033 187.402,210.199 185.5,210C 187.044,209.71 188.377,209.044 189.5,208C 188.177,207.184 187.511,206.017 187.5,204.5C 189.621,204.675 191.621,204.341 193.5,203.5 Z"/></g>
<g><path style="opacity:1" fill="#f2674c" d="M 237.5,211.5 C 238.167,211.5 238.833,211.5 239.5,211.5C 235.465,214.857 231.132,217.857 226.5,220.5C 226.5,219.167 226.5,217.833 226.5,216.5C 227.15,216.804 227.817,217.137 228.5,217.5C 230.275,213.772 233.275,211.772 237.5,211.5 Z"/></g>
<g><path style="opacity:1" fill="#fc5d2e" d="M 163.5,200.5 C 163.833,200.5 164.167,200.5 164.5,200.5C 166.176,205.535 168.176,210.535 170.5,215.5C 174.479,220.993 178.812,226.326 183.5,231.5C 181.702,232.463 180.368,231.796 179.5,229.5C 178.893,229.624 178.56,229.957 178.5,230.5C 174.824,225.987 171.324,221.32 168,216.5C 166.868,218.522 165.201,218.855 163,217.5C 157.709,218.149 153.043,220.149 149,223.5C 145.94,223.737 143.274,223.737 141,223.5C 139.491,224.09 137.991,224.756 136.5,225.5C 137.791,226.527 137.791,227.527 136.5,228.5C 135.662,228.158 135.328,227.492 135.5,226.5C 135.726,223.751 135.393,221.084 134.5,218.5C 135.814,216.548 136.48,214.715 136.5,213C 140.469,212.147 144.469,211.481 148.5,211C 151.795,208.566 155.462,206.899 159.5,206C 160.721,203.966 162.055,202.133 163.5,200.5 Z"/></g>
<g><path style="opacity:1" fill="#f3a654" d="M 360.5,212.5 C 359.935,216.537 358.601,220.203 356.5,223.5C 356.5,222.5 356.5,221.5 356.5,220.5C 356.53,217.148 357.863,214.482 360.5,212.5 Z"/></g>
<g><path style="opacity:1" fill="#f63448" d="M 187.5,204.5 C 187.511,206.017 188.177,207.184 189.5,208C 188.377,209.044 187.044,209.71 185.5,210C 187.402,210.199 188.902,211.033 190,212.5C 190.665,214.966 191.165,217.133 191.5,219C 190.833,219.333 190.167,219.667 189.5,220C 190.376,221.586 191.376,223.086 192.5,224.5C 191.334,227.503 189.667,230.17 187.5,232.5C 186.583,231.873 185.583,231.539 184.5,231.5C 184.167,231.5 183.833,231.5 183.5,231.5C 178.812,226.326 174.479,220.993 170.5,215.5C 175.915,211.413 181.582,207.746 187.5,204.5 Z"/></g>
<g><path style="opacity:1" fill="#e3253b" d="M 324.5,213.5 C 327.207,215.843 329.874,218.177 332.5,220.5C 332.606,223.108 333.772,225.108 336,226.5C 336.667,225.167 337.333,225.167 338,226.5C 338.837,228.351 339.671,230.184 340.5,232C 339.451,232.492 338.451,232.326 337.5,231.5C 336.21,233.657 335.376,235.99 335,238.5C 333.657,237.786 332.324,238.12 331,239.5C 330.333,240.5 330.333,241.5 331,242.5C 331.914,241.346 332.747,241.513 333.5,243C 330.383,244.472 327.549,246.306 325,248.5C 324.055,248.095 323.388,247.428 323,246.5C 322.833,249.333 321.333,250.833 318.5,251C 315.678,251.428 313.012,250.928 310.5,249.5C 309.167,248.5 307.833,247.5 306.5,246.5C 305.71,245.599 304.71,244.932 303.5,244.5C 303.167,243.833 302.833,243.167 302.5,242.5C 305.812,242.93 308.312,244.597 310,247.5C 312.928,246.24 314.761,244.073 315.5,241C 315.167,240.667 314.833,240.333 314.5,240C 315.833,239.667 317.167,239.333 318.5,239C 317.542,237.853 317.875,236.853 319.5,236C 318.69,232.633 320.023,230.3 323.5,229C 321.847,224.312 323.513,221.645 328.5,221C 327.366,219.984 327.699,219.317 329.5,219C 327.603,217.89 325.77,217.724 324,218.5C 324.019,216.893 324.185,215.226 324.5,213.5 Z"/></g>
<g><path style="opacity:1" fill="#fc4e2a" d="M 178.5,230.5 C 178.383,232.484 179.05,234.15 180.5,235.5C 178.993,236.739 177.826,236.405 177,234.5C 175.102,240.696 173.935,247.029 173.5,253.5C 174.053,256.818 174.053,259.984 173.5,263C 173.94,265.597 174.607,268.097 175.5,270.5C 173.973,270.573 172.973,269.906 172.5,268.5C 172.027,267.094 171.027,266.427 169.5,266.5C 168.5,266.167 167.833,265.5 167.5,264.5C 166.329,263.655 164.995,262.989 163.5,262.5C 158.281,257.736 153.281,252.736 148.5,247.5C 146.518,244.19 144.185,241.19 141.5,238.5C 139.308,235.45 137.642,232.117 136.5,228.5C 137.791,227.527 137.791,226.527 136.5,225.5C 137.991,224.756 139.491,224.09 141,223.5C 143.274,223.737 145.94,223.737 149,223.5C 153.043,220.149 157.709,218.149 163,217.5C 165.201,218.855 166.868,218.522 168,216.5C 171.324,221.32 174.824,225.987 178.5,230.5 Z"/></g>
<g><path style="opacity:1" fill="#fd5627" d="M 183.5,231.5 C 183.833,231.5 184.167,231.5 184.5,231.5C 186.86,234.527 189.527,237.194 192.5,239.5C 191.25,239.577 190.417,240.244 190,241.5C 189.736,245.949 188.903,250.283 187.5,254.5C 187.818,255.647 188.484,256.481 189.5,257C 184.057,261.857 183.391,267.357 187.5,273.5C 185.741,274.754 184.241,274.421 183,272.5C 182.583,273.756 181.75,274.423 180.5,274.5C 180.027,273.094 179.027,272.427 177.5,272.5C 176.5,272.167 175.833,271.5 175.5,270.5C 174.607,268.097 173.94,265.597 173.5,263C 174.053,259.984 174.053,256.818 173.5,253.5C 173.935,247.029 175.102,240.696 177,234.5C 177.826,236.405 178.993,236.739 180.5,235.5C 179.05,234.15 178.383,232.484 178.5,230.5C 178.56,229.957 178.893,229.624 179.5,229.5C 180.368,231.796 181.702,232.463 183.5,231.5 Z"/></g>
<g><path style="opacity:1" fill="#e9504d" d="M 221.5,220.5 C 222.209,221.404 223.209,221.737 224.5,221.5C 215.543,227.985 206.21,233.985 196.5,239.5C 194.724,235.675 195.724,234.342 199.5,235.5C 201.13,234.579 202.797,233.745 204.5,233C 204.167,232.667 203.833,232.333 203.5,232C 205.437,231.878 206.77,231.045 207.5,229.5C 209.545,227.016 212.212,226.016 215.5,226.5C 215.5,225.5 215.5,224.5 215.5,223.5C 217.167,223.5 218.833,223.5 220.5,223.5C 220.263,222.209 220.596,221.209 221.5,220.5 Z"/></g>
<g><path style="opacity:1" fill="#ea3434" d="M 332.5,220.5 C 336.086,222.58 339.253,225.246 342,228.5C 344.042,231.94 346.542,234.94 349.5,237.5C 351.925,240.589 353.925,243.922 355.5,247.5C 354.21,248.058 353.377,249.058 353,250.5C 352.751,249.376 352.251,248.376 351.5,247.5C 347.633,251.199 343.966,255.032 340.5,259C 337.397,260.439 334.564,262.273 332,264.5C 331.667,264.167 331.333,263.833 331,263.5C 330.51,264.793 330.343,266.127 330.5,267.5C 328.989,266.498 327.322,265.831 325.5,265.5C 325.36,263.876 326.027,262.71 327.5,262C 325.803,261.616 324.137,261.782 322.5,262.5C 321.2,259.568 319.2,257.234 316.5,255.5C 315.415,253.413 313.749,252.08 311.5,251.5C 311.167,250.833 310.833,250.167 310.5,249.5C 313.012,250.928 315.678,251.428 318.5,251C 321.333,250.833 322.833,249.333 323,246.5C 323.388,247.428 324.055,248.095 325,248.5C 327.549,246.306 330.383,244.472 333.5,243C 332.747,241.513 331.914,241.346 331,242.5C 330.333,241.5 330.333,240.5 331,239.5C 332.324,238.12 333.657,237.786 335,238.5C 335.376,235.99 336.21,233.657 337.5,231.5C 338.451,232.326 339.451,232.492 340.5,232C 339.671,230.184 338.837,228.351 338,226.5C 337.333,225.167 336.667,225.167 336,226.5C 333.772,225.108 332.606,223.108 332.5,220.5 Z"/></g>
<g><path style="opacity:1" fill="#f53c8a" d="M 141.5,239.5 C 141.039,241.55 140.372,243.55 139.5,245.5C 140.09,246.799 141.09,247.632 142.5,248C 140.548,250.074 138.715,252.241 137,254.5C 136.682,248.721 135.848,248.387 134.5,253.5C 134.043,254.298 133.376,254.631 132.5,254.5C 134.246,248.662 137.246,243.662 141.5,239.5 Z"/></g>
<g><path style="opacity:1" fill="#f87436" d="M 198.5,243.5 C 204.38,247.267 210.046,251.267 215.5,255.5C 214.417,255.539 213.417,255.873 212.5,256.5C 211.757,255.092 210.923,253.759 210,252.5C 207.541,253.649 205.041,253.649 202.5,252.5C 201.883,252.611 201.383,252.944 201,253.5C 200.727,251.671 199.893,250.171 198.5,249C 199.428,248.612 200.095,247.945 200.5,247C 199.571,245.923 198.904,244.756 198.5,243.5 Z"/></g>
<g><path style="opacity:0.463" fill="#dd7874" d="M 356.5,249.5 C 357.906,249.973 358.573,250.973 358.5,252.5C 357.094,252.027 356.427,251.027 356.5,249.5 Z"/></g>
<g><path style="opacity:1" fill="#fd7024" d="M 202.5,252.5 C 205.041,253.649 207.541,253.649 210,252.5C 210.923,253.759 211.757,255.092 212.5,256.5C 213.417,255.873 214.417,255.539 215.5,255.5C 217.25,262.449 216.584,269.115 213.5,275.5C 213.756,276.689 214.089,277.856 214.5,279C 213.38,280.737 212.38,282.571 211.5,284.5C 213.113,287.854 212.78,290.854 210.5,293.5C 208.423,291.918 206.09,290.918 203.5,290.5C 201.973,290.573 200.973,289.906 200.5,288.5C 200.027,287.094 199.027,286.427 197.5,286.5C 193.618,284.066 189.952,281.399 186.5,278.5C 188.135,277.185 189.801,277.185 191.5,278.5C 192.556,280.646 194.056,282.312 196,283.5C 198.411,282.299 198.911,280.632 197.5,278.5C 199.213,271.162 201.213,263.662 203.5,256C 202.663,254.989 202.33,253.822 202.5,252.5 Z"/></g>
<g><path style="opacity:1" fill="#fcc986" d="M 297.5,239.5 C 298.167,239.5 298.5,239.833 298.5,240.5C 297.702,243.811 295.869,246.478 293,248.5C 289.702,262.098 285.535,275.431 280.5,288.5C 281.892,290.23 283.559,291.564 285.5,292.5C 282.319,294.592 279.319,296.925 276.5,299.5C 275.609,298.89 274.609,298.557 273.5,298.5C 272.167,297.167 270.833,295.833 269.5,294.5C 270.833,294.5 272.167,294.5 273.5,294.5C 273.67,293.178 273.337,292.011 272.5,291C 273.667,290.5 274.5,289.667 275,288.5C 279.009,277.64 282.176,266.473 284.5,255C 283.145,252.872 283.478,251.038 285.5,249.5C 289.836,246.491 293.836,243.157 297.5,239.5 Z"/></g>
<g><path style="opacity:1" fill="#fdaf53" d="M 306.5,246.5 C 307.833,247.5 309.167,248.5 310.5,249.5C 310.833,250.167 311.167,250.833 311.5,251.5C 309.983,251.489 308.816,250.823 308,249.5C 306.826,254.75 306.159,260.084 306,265.5C 304.963,268.405 303.796,271.239 302.5,274C 303.653,275.883 305.319,276.716 307.5,276.5C 307.027,277.906 306.027,278.573 304.5,278.5C 303.749,277.427 302.749,277.26 301.5,278C 299.327,278.676 297.994,280.176 297.5,282.5C 296.5,282 295.5,281.5 294.5,281C 296.821,278.88 297.488,276.38 296.5,273.5C 299.578,265.343 302.078,257.009 304,248.5C 304.995,247.934 305.828,247.267 306.5,246.5 Z"/></g>
<g><path style="opacity:1" fill="#fe6325" d="M 192.5,239.5 C 193.5,239.5 194.5,239.5 195.5,239.5C 196.5,240.833 197.5,242.167 198.5,243.5C 198.904,244.756 199.571,245.923 200.5,247C 200.095,247.945 199.428,248.612 198.5,249C 199.893,250.171 200.727,251.671 201,253.5C 201.383,252.944 201.883,252.611 202.5,252.5C 202.33,253.822 202.663,254.989 203.5,256C 201.213,263.662 199.213,271.162 197.5,278.5C 198.911,280.632 198.411,282.299 196,283.5C 194.056,282.312 192.556,280.646 191.5,278.5C 189.801,277.185 188.135,277.185 186.5,278.5C 184.147,277.66 182.147,276.326 180.5,274.5C 181.75,274.423 182.583,273.756 183,272.5C 184.241,274.421 185.741,274.754 187.5,273.5C 183.391,267.357 184.057,261.857 189.5,257C 188.484,256.481 187.818,255.647 187.5,254.5C 188.903,250.283 189.736,245.949 190,241.5C 190.417,240.244 191.25,239.577 192.5,239.5 Z"/></g>
<g><path style="opacity:1" fill="#fcd39a" d="M 285.5,249.5 C 283.478,251.038 283.145,252.872 284.5,255C 282.176,266.473 279.009,277.64 275,288.5C 274.5,289.667 273.667,290.5 272.5,291C 273.337,292.011 273.67,293.178 273.5,294.5C 272.167,294.5 270.833,294.5 269.5,294.5C 265.608,292.938 262.275,290.605 259.5,287.5C 261.5,287.167 263.5,286.833 265.5,286.5C 268.665,278.215 270.832,269.881 272,261.5C 274.521,260.119 276.355,258.119 277.5,255.5C 279.878,253.122 282.545,251.122 285.5,249.5 Z"/></g>
<g><path style="opacity:1" fill="#fcb765" d="M 303.5,244.5 C 304.71,244.932 305.71,245.599 306.5,246.5C 305.828,247.267 304.995,247.934 304,248.5C 302.078,257.009 299.578,265.343 296.5,273.5C 297.488,276.38 296.821,278.88 294.5,281C 295.5,281.5 296.5,282 297.5,282.5C 297.994,280.176 299.327,278.676 301.5,278C 302.749,277.26 303.749,277.427 304.5,278.5C 301.403,281.888 297.736,284.555 293.5,286.5C 289.913,284.526 287.746,285.526 287,289.5C 286.308,288.975 285.808,288.308 285.5,287.5C 286.01,284.77 287.344,282.603 289.5,281C 289.167,279.333 288.833,277.667 288.5,276C 293.135,265.901 296.468,255.401 298.5,244.5C 300.167,244.5 301.833,244.5 303.5,244.5 Z"/></g>
<g><path style="opacity:1" fill="#fda747" d="M 311.5,251.5 C 313.749,252.08 315.415,253.413 316.5,255.5C 314.857,255.52 313.524,254.853 312.5,253.5C 309.305,254.829 308.972,256.495 311.5,258.5C 309.535,263.693 308.202,269.026 307.5,274.5C 308.5,274.5 309.5,274.5 310.5,274.5C 310.027,275.906 309.027,276.573 307.5,276.5C 305.319,276.716 303.653,275.883 302.5,274C 303.796,271.239 304.963,268.405 306,265.5C 306.159,260.084 306.826,254.75 308,249.5C 308.816,250.823 309.983,251.489 311.5,251.5 Z"/></g>
<g><path style="opacity:1" fill="#ef4532" d="M 355.5,247.5 C 356.338,247.842 356.672,248.508 356.5,249.5C 356.427,251.027 357.094,252.027 358.5,252.5C 359.674,253.514 360.34,254.847 360.5,256.5C 360.5,257.5 360.5,258.5 360.5,259.5C 355.811,260.003 351.145,261.503 346.5,264C 342.564,266.427 338.73,268.927 335,271.5C 334.667,270.833 334.333,270.167 334,269.5C 332.667,270.833 331.333,272.167 330,273.5C 329.333,272.167 329.333,270.833 330,269.5C 330.654,270.696 331.154,270.696 331.5,269.5C 331.137,268.817 330.804,268.15 330.5,267.5C 330.343,266.127 330.51,264.793 331,263.5C 331.333,263.833 331.667,264.167 332,264.5C 334.564,262.273 337.397,260.439 340.5,259C 343.966,255.032 347.633,251.199 351.5,247.5C 352.251,248.376 352.751,249.376 353,250.5C 353.377,249.058 354.21,248.058 355.5,247.5 Z"/></g>
<g><path style="opacity:1" fill="#fd7f24" d="M 215.5,255.5 C 223.341,260.587 231.008,265.92 238.5,271.5C 238.5,271.833 238.5,272.167 238.5,272.5C 236.46,271.481 234.46,271.481 232.5,272.5C 232.968,274.134 233.968,275.3 235.5,276C 232.833,277 232.833,278 235.5,279C 234.142,280.832 233.808,282.665 234.5,284.5C 233.687,285.814 232.687,286.981 231.5,288C 232.5,288.333 233.5,288.667 234.5,289C 232.128,292.03 229.795,295.03 227.5,298C 228.435,300.381 228.768,302.881 228.5,305.5C 225.673,305.416 223.006,304.75 220.5,303.5C 219.167,302.833 217.833,302.167 216.5,301.5C 212.352,297.596 208.019,293.929 203.5,290.5C 206.09,290.918 208.423,291.918 210.5,293.5C 212.78,290.854 213.113,287.854 211.5,284.5C 212.38,282.571 213.38,280.737 214.5,279C 214.089,277.856 213.756,276.689 213.5,275.5C 216.584,269.115 217.25,262.449 215.5,255.5 Z"/></g>
<g><path style="opacity:1" fill="#f05235" d="M 360.5,259.5 C 361.303,260.423 361.47,261.423 361,262.5C 360.107,261.289 359.274,261.289 358.5,262.5C 359.936,263.934 361.602,265.1 363.5,266C 362.457,267.976 361.123,268.476 359.5,267.5C 351.438,270.019 343.604,273.019 336,276.5C 334.251,277.41 333.084,278.743 332.5,280.5C 332.167,280.5 331.833,280.5 331.5,280.5C 329.566,275.044 327.232,269.711 324.5,264.5C 323.833,263.833 323.167,263.167 322.5,262.5C 324.137,261.782 325.803,261.616 327.5,262C 326.027,262.71 325.36,263.876 325.5,265.5C 327.322,265.831 328.989,266.498 330.5,267.5C 330.804,268.15 331.137,268.817 331.5,269.5C 331.154,270.696 330.654,270.696 330,269.5C 329.333,270.833 329.333,272.167 330,273.5C 331.333,272.167 332.667,270.833 334,269.5C 334.333,270.167 334.667,270.833 335,271.5C 338.73,268.927 342.564,266.427 346.5,264C 351.145,261.503 355.811,260.003 360.5,259.5 Z"/></g>
<g><path style="opacity:0.769" fill="#ec7c63" d="M 169.5,266.5 C 171.027,266.427 172.027,267.094 172.5,268.5C 170.973,268.573 169.973,267.906 169.5,266.5 Z"/></g>
<g><path style="opacity:1" fill="#fc9e37" d="M 316.5,255.5 C 319.2,257.234 321.2,259.568 322.5,262.5C 323.167,263.167 323.833,263.833 324.5,264.5C 319.573,267.42 314.906,270.754 310.5,274.5C 309.5,274.5 308.5,274.5 307.5,274.5C 308.202,269.026 309.535,263.693 311.5,258.5C 308.972,256.495 309.305,254.829 312.5,253.5C 313.524,254.853 314.857,255.52 316.5,255.5 Z"/></g>
<g><path style="opacity:1" fill="#ed1970" d="M 148.5,247.5 C 153.281,252.736 158.281,257.736 163.5,262.5C 163.646,264.942 162.813,265.609 161,264.5C 160.283,265.044 159.783,265.711 159.5,266.5C 158.175,265.047 157.342,265.381 157,267.5C 156.667,266.833 156.333,266.167 156,265.5C 155.097,266.701 153.931,267.535 152.5,268C 144.198,270.99 135.865,273.824 127.5,276.5C 127.19,273.287 127.523,270.287 128.5,267.5C 128.07,272.496 129.403,273.33 132.5,270C 135.119,269.849 137.453,269.015 139.5,267.5C 138.975,266.808 138.308,266.308 137.5,266C 141.156,263.75 144.823,261.417 148.5,259C 149.641,258.259 149.641,257.425 148.5,256.5C 149.603,256.002 150.603,255.669 151.5,255.5C 150.115,254.449 149.115,253.116 148.5,251.5C 149.363,250.274 149.363,248.94 148.5,247.5 Z"/></g>
<g><path style="opacity:1" fill="#f26035" d="M 360.5,256.5 C 362.642,259.8 363.975,263.467 364.5,267.5C 364.813,270.247 364.48,272.914 363.5,275.5C 362.833,275.167 362.167,274.833 361.5,274.5C 360.738,275.628 360.071,276.795 359.5,278C 354.356,280.27 349.022,281.937 343.5,283C 340.498,284.281 337.665,285.781 335,287.5C 334.392,285.934 333.558,284.6 332.5,283.5C 332.5,282.5 332.5,281.5 332.5,280.5C 333.084,278.743 334.251,277.41 336,276.5C 343.604,273.019 351.438,270.019 359.5,267.5C 361.123,268.476 362.457,267.976 363.5,266C 361.602,265.1 359.936,263.934 358.5,262.5C 359.274,261.289 360.107,261.289 361,262.5C 361.47,261.423 361.303,260.423 360.5,259.5C 360.5,258.5 360.5,257.5 360.5,256.5 Z"/></g>
<g><path style="opacity:1" fill="#f61c7b" d="M 141.5,238.5 C 144.185,241.19 146.518,244.19 148.5,247.5C 149.363,248.94 149.363,250.274 148.5,251.5C 149.115,253.116 150.115,254.449 151.5,255.5C 150.603,255.669 149.603,256.002 148.5,256.5C 149.641,257.425 149.641,258.259 148.5,259C 144.823,261.417 141.156,263.75 137.5,266C 138.308,266.308 138.975,266.808 139.5,267.5C 137.453,269.015 135.119,269.849 132.5,270C 129.403,273.33 128.07,272.496 128.5,267.5C 129.657,264.727 130.324,261.727 130.5,258.5C 130.66,256.847 131.326,255.514 132.5,254.5C 133.376,254.631 134.043,254.298 134.5,253.5C 135.848,248.387 136.682,248.721 137,254.5C 138.715,252.241 140.548,250.074 142.5,248C 141.09,247.632 140.09,246.799 139.5,245.5C 140.372,243.55 141.039,241.55 141.5,239.5C 141.5,239.167 141.5,238.833 141.5,238.5 Z"/></g>
<g><path style="opacity:1" fill="#fce0b8" d="M 277.5,255.5 C 276.355,258.119 274.521,260.119 272,261.5C 270.832,269.881 268.665,278.215 265.5,286.5C 263.5,286.833 261.5,287.167 259.5,287.5C 257.999,286.248 256.332,285.248 254.5,284.5C 251.681,281.925 248.681,279.592 245.5,277.5C 252.521,273.336 259.187,268.503 265.5,263C 269.402,260.249 273.402,257.749 277.5,255.5 Z"/></g>
<g><path style="opacity:0.757" fill="#e8805a" d="M 177.5,272.5 C 179.027,272.427 180.027,273.094 180.5,274.5C 178.973,274.573 177.973,273.906 177.5,272.5 Z"/></g>
<g><path style="opacity:1" fill="#fcc077" d="M 298.5,240.5 C 299.167,240.5 299.833,240.5 300.5,240.5C 300.833,241.5 301.5,242.167 302.5,242.5C 302.833,243.167 303.167,243.833 303.5,244.5C 301.833,244.5 300.167,244.5 298.5,244.5C 296.468,255.401 293.135,265.901 288.5,276C 288.833,277.667 289.167,279.333 289.5,281C 287.344,282.603 286.01,284.77 285.5,287.5C 285.808,288.308 286.308,288.975 287,289.5C 287.746,285.526 289.913,284.526 293.5,286.5C 291.14,288.853 288.473,290.853 285.5,292.5C 283.559,291.564 281.892,290.23 280.5,288.5C 285.535,275.431 289.702,262.098 293,248.5C 295.869,246.478 297.702,243.811 298.5,240.5 Z"/></g>
<g><path style="opacity:1" fill="#e01a6c" d="M 130.5,258.5 C 130.324,261.727 129.657,264.727 128.5,267.5C 127.523,270.287 127.19,273.287 127.5,276.5C 135.865,273.824 144.198,270.99 152.5,268C 153.931,267.535 155.097,266.701 156,265.5C 156.333,266.167 156.667,266.833 157,267.5C 157.342,265.381 158.175,265.047 159.5,266.5C 158.699,268.042 158.366,269.708 158.5,271.5C 150.892,275.538 142.892,278.705 134.5,281C 131.204,282.224 128.371,284.058 126,286.5C 126.03,280.852 126.197,275.185 126.5,269.5C 127.065,265.463 128.399,261.797 130.5,258.5 Z"/></g>
<g><path style="opacity:1" fill="#d31965" d="M 126.5,269.5 C 126.197,275.185 126.03,280.852 126,286.5C 128.371,284.058 131.204,282.224 134.5,281C 142.892,278.705 150.892,275.538 158.5,271.5C 159.763,274.68 158.929,277.347 156,279.5C 155.667,279.167 155.333,278.833 155,278.5C 151.833,280.333 148.667,282.167 145.5,284C 139.565,285.252 134.065,287.419 129,290.5C 127.612,290.786 126.112,290.452 124.5,289.5C 124.5,286.167 124.5,282.833 124.5,279.5C 124.322,275.878 124.989,272.544 126.5,269.5 Z"/></g>
<g><path style="opacity:1" fill="#fd8c24" d="M 238.5,271.5 C 240.858,273.529 243.192,275.529 245.5,277.5C 248.681,279.592 251.681,281.925 254.5,284.5C 254.656,287.646 255.989,290.146 258.5,292C 258.095,292.945 257.428,293.612 256.5,294C 257.542,296.557 258.875,298.89 260.5,301C 258.833,302.667 257.167,304.333 255.5,306C 255.833,306.333 256.167,306.667 256.5,307C 255.773,308.399 255.273,309.899 255,311.5C 254.374,309.009 253.541,309.009 252.5,311.5C 251.513,314.768 251.18,318.102 251.5,321.5C 252.552,321.351 253.552,321.517 254.5,322C 253.316,323.145 253.316,324.312 254.5,325.5C 253.791,326.404 252.791,326.737 251.5,326.5C 249.833,325.833 248.167,325.167 246.5,324.5C 244.778,323 243.112,321.333 241.5,319.5C 240.91,317.903 239.91,316.569 238.5,315.5C 239.167,314.5 239.833,313.5 240.5,312.5C 236.616,310.407 236.616,308.24 240.5,306C 239.591,304.211 239.424,302.377 240,300.5C 240.667,301.833 241.333,301.833 242,300.5C 245.09,295.448 245.256,290.281 242.5,285C 244.583,283.68 244.249,282.346 241.5,281C 242.308,280.692 242.975,280.192 243.5,279.5C 241.808,277.149 240.142,274.815 238.5,272.5C 238.5,272.167 238.5,271.833 238.5,271.5 Z"/></g>
<g><path style="opacity:0.529" fill="#e2835c" d="M 331.5,280.5 C 331.833,280.5 332.167,280.5 332.5,280.5C 332.5,281.5 332.5,282.5 332.5,283.5C 332.354,287.519 332.021,291.519 331.5,295.5C 330.833,295.5 330.167,295.5 329.5,295.5C 331.041,290.635 331.708,285.635 331.5,280.5 Z"/></g>
<g><path style="opacity:0.537" fill="#ec976b" d="M 197.5,286.5 C 199.027,286.427 200.027,287.094 200.5,288.5C 198.973,288.573 197.973,287.906 197.5,286.5 Z"/></g>
<g><path style="opacity:1" fill="#fb8521" d="M 238.5,272.5 C 240.142,274.815 241.808,277.149 243.5,279.5C 242.975,280.192 242.308,280.692 241.5,281C 244.249,282.346 244.583,283.68 242.5,285C 245.256,290.281 245.09,295.448 242,300.5C 241.333,301.833 240.667,301.833 240,300.5C 239.424,302.377 239.591,304.211 240.5,306C 236.616,308.24 236.616,310.407 240.5,312.5C 239.833,313.5 239.167,314.5 238.5,315.5C 239.91,316.569 240.91,317.903 241.5,319.5C 239.589,318.925 237.922,317.925 236.5,316.5C 234.381,314.6 232.047,312.934 229.5,311.5C 226.5,308.833 223.5,306.167 220.5,303.5C 223.006,304.75 225.673,305.416 228.5,305.5C 228.768,302.881 228.435,300.381 227.5,298C 229.795,295.03 232.128,292.03 234.5,289C 233.5,288.667 232.5,288.333 231.5,288C 232.687,286.981 233.687,285.814 234.5,284.5C 233.808,282.665 234.142,280.832 235.5,279C 232.833,278 232.833,277 235.5,276C 233.968,275.3 232.968,274.134 232.5,272.5C 234.46,271.481 236.46,271.481 238.5,272.5 Z"/></g>
<g><path style="opacity:1" fill="#c41a60" d="M 163.5,262.5 C 164.995,262.989 166.329,263.655 167.5,264.5C 165.983,264.511 164.816,265.177 164,266.5C 161.591,270.892 160.091,275.558 159.5,280.5C 159.167,280.5 158.833,280.5 158.5,280.5C 157.686,282.631 157.186,284.964 157,287.5C 155.636,286.742 154.469,287.242 153.5,289C 145.03,291.93 136.864,295.43 129,299.5C 128.751,298.376 128.251,297.376 127.5,296.5C 126.575,297.641 125.741,297.641 125,296.5C 124.503,294.19 124.337,291.857 124.5,289.5C 126.112,290.452 127.612,290.786 129,290.5C 134.065,287.419 139.565,285.252 145.5,284C 148.667,282.167 151.833,280.333 155,278.5C 155.333,278.833 155.667,279.167 156,279.5C 158.929,277.347 159.763,274.68 158.5,271.5C 158.366,269.708 158.699,268.042 159.5,266.5C 159.783,265.711 160.283,265.044 161,264.5C 162.813,265.609 163.646,264.942 163.5,262.5 Z"/></g>
<g><path style="opacity:1" fill="#f47338" d="M 364.5,267.5 C 366.419,271.857 367.419,276.523 367.5,281.5C 367.5,282.5 367.5,283.5 367.5,284.5C 356.071,290.441 344.071,294.107 331.5,295.5C 332.021,291.519 332.354,287.519 332.5,283.5C 333.558,284.6 334.392,285.934 335,287.5C 337.665,285.781 340.498,284.281 343.5,283C 349.022,281.937 354.356,280.27 359.5,278C 360.071,276.795 360.738,275.628 361.5,274.5C 362.167,274.833 362.833,275.167 363.5,275.5C 364.48,272.914 364.813,270.247 364.5,267.5 Z"/></g>
<g><path style="opacity:1" fill="#f6843b" d="M 367.5,284.5 C 367.81,287.713 367.477,290.713 366.5,293.5C 355.729,297.989 344.729,300.989 333.5,302.5C 332.833,301.167 332.167,299.833 331.5,298.5C 330.742,299.811 329.742,300.311 328.5,300C 329.38,298.644 329.714,297.144 329.5,295.5C 330.167,295.5 330.833,295.5 331.5,295.5C 344.071,294.107 356.071,290.441 367.5,284.5 Z"/></g>
<g><path style="opacity:1" fill="#fe9225" d="M 254.5,284.5 C 256.332,285.248 257.999,286.248 259.5,287.5C 262.275,290.605 265.608,292.938 269.5,294.5C 270.833,295.833 272.167,297.167 273.5,298.5C 272.993,299.859 271.993,300.859 270.5,301.5C 271.751,302.631 272.751,303.964 273.5,305.5C 272.349,307.325 271.682,309.325 271.5,311.5C 270.167,311.5 268.833,311.5 267.5,311.5C 267.813,314.247 267.48,316.914 266.5,319.5C 264.639,320.528 263.305,322.028 262.5,324C 263.167,324.333 263.833,324.667 264.5,325C 263.833,326.333 263.167,327.667 262.5,329C 263.449,329.617 264.282,329.451 265,328.5C 265.51,330.545 266.343,332.379 267.5,334C 265.831,334.122 264.165,333.788 262.5,333C 262.167,332 261.833,331 261.5,330C 259.015,328.671 256.681,327.171 254.5,325.5C 253.316,324.312 253.316,323.145 254.5,322C 253.552,321.517 252.552,321.351 251.5,321.5C 251.18,318.102 251.513,314.768 252.5,311.5C 253.541,309.009 254.374,309.009 255,311.5C 255.273,309.899 255.773,308.399 256.5,307C 256.167,306.667 255.833,306.333 255.5,306C 257.167,304.333 258.833,302.667 260.5,301C 258.875,298.89 257.542,296.557 256.5,294C 257.428,293.612 258.095,292.945 258.5,292C 255.989,290.146 254.656,287.646 254.5,284.5 Z"/></g>
<g><path style="opacity:1" fill="#b21b5c" d="M 124.5,279.5 C 124.5,282.833 124.5,286.167 124.5,289.5C 124.337,291.857 124.503,294.19 125,296.5C 125.741,297.641 126.575,297.641 127.5,296.5C 128.251,297.376 128.751,298.376 129,299.5C 136.864,295.43 145.03,291.93 153.5,289C 154.469,287.242 155.636,286.742 157,287.5C 157.186,284.964 157.686,282.631 158.5,280.5C 158.958,285.866 158.291,291.033 156.5,296C 147.97,300.006 139.303,303.506 130.5,306.5C 130.875,309.907 129.875,310.407 127.5,308C 127.957,307.586 128.291,307.086 128.5,306.5C 127.368,304.511 126.035,302.844 124.5,301.5C 123.298,294.018 123.298,286.684 124.5,279.5 Z"/></g>
<g><path style="opacity:1" fill="#a11d5a" d="M 158.5,280.5 C 158.833,280.5 159.167,280.5 159.5,280.5C 159.182,285.659 159.848,290.659 161.5,295.5C 161.34,297.199 161.506,298.866 162,300.5C 162.914,299.346 163.747,299.513 164.5,301C 153.834,305.431 143.001,310.931 132,317.5C 131.583,316.244 130.75,315.577 129.5,315.5C 127.441,310.99 125.774,306.323 124.5,301.5C 126.035,302.844 127.368,304.511 128.5,306.5C 128.291,307.086 127.957,307.586 127.5,308C 129.875,310.407 130.875,309.907 130.5,306.5C 139.303,303.506 147.97,300.006 156.5,296C 158.291,291.033 158.958,285.866 158.5,280.5 Z"/></g>
<g><path style="opacity:1" fill="#fd9b2f" d="M 273.5,298.5 C 274.609,298.557 275.609,298.89 276.5,299.5C 276.414,300.496 276.748,301.329 277.5,302C 276.833,302.333 276.167,302.667 275.5,303C 280.699,303.683 284.366,306.516 286.5,311.5C 285.593,314.421 285.26,317.421 285.5,320.5C 287.143,320.48 288.476,321.147 289.5,322.5C 290.354,321.052 291.354,319.719 292.5,318.5C 291.41,317.391 291.41,316.391 292.5,315.5C 294.626,317.715 297.292,318.882 300.5,319C 298.568,320.564 297.235,322.564 296.5,325C 297.63,326.904 297.63,328.737 296.5,330.5C 295.012,332.489 293.345,334.322 291.5,336C 293.481,336.605 293.815,337.605 292.5,339C 293.308,339.308 293.975,339.808 294.5,340.5C 293.167,341.5 293.167,342.5 294.5,343.5C 292.674,343.92 290.674,343.92 288.5,343.5C 287.167,343.5 285.833,343.5 284.5,343.5C 281.855,341.69 278.855,340.69 275.5,340.5C 266.507,337.344 258.507,332.677 251.5,326.5C 252.791,326.737 253.791,326.404 254.5,325.5C 256.681,327.171 259.015,328.671 261.5,330C 261.833,331 262.167,332 262.5,333C 264.165,333.788 265.831,334.122 267.5,334C 266.343,332.379 265.51,330.545 265,328.5C 264.282,329.451 263.449,329.617 262.5,329C 263.167,327.667 263.833,326.333 264.5,325C 263.833,324.667 263.167,324.333 262.5,324C 263.305,322.028 264.639,320.528 266.5,319.5C 267.48,316.914 267.813,314.247 267.5,311.5C 268.833,311.5 270.167,311.5 271.5,311.5C 271.682,309.325 272.349,307.325 273.5,305.5C 272.751,303.964 271.751,302.631 270.5,301.5C 271.993,300.859 272.993,299.859 273.5,298.5 Z"/></g>
<g><path style="opacity:1" fill="#f89140" d="M 366.5,293.5 C 366.789,296.649 366.289,299.649 365,302.5C 364.667,302.167 364.333,301.833 364,301.5C 352.992,305.193 341.825,308.193 330.5,310.5C 327.989,308.842 325.822,309.175 324,311.5C 321.354,309.633 320.854,307.3 322.5,304.5C 325.246,301.762 327.58,298.762 329.5,295.5C 329.714,297.144 329.38,298.644 328.5,300C 329.742,300.311 330.742,299.811 331.5,298.5C 332.167,299.833 332.833,301.167 333.5,302.5C 344.729,300.989 355.729,297.989 366.5,293.5 Z"/></g>
<g><path style="opacity:1" fill="#f99b47" d="M 367.5,281.5 C 368.935,289.136 368.602,296.802 366.5,304.5C 364.833,307.5 362.5,309.833 359.5,311.5C 358.596,312.209 358.263,313.209 358.5,314.5C 356.799,314.966 355.299,314.966 354,314.5C 343.968,317.595 333.801,320.261 323.5,322.5C 327.137,319.677 331.137,317.343 335.5,315.5C 328.812,315.771 322.312,315.771 316,315.5C 314.743,315.15 314.409,314.483 315,313.5C 316.947,312.89 318.781,312.057 320.5,311C 316.95,311.09 313.283,310.924 309.5,310.5C 309.5,310.167 309.5,309.833 309.5,309.5C 314.185,308.654 318.519,306.987 322.5,304.5C 320.854,307.3 321.354,309.633 324,311.5C 325.822,309.175 327.989,308.842 330.5,310.5C 341.825,308.193 352.992,305.193 364,301.5C 364.333,301.833 364.667,302.167 365,302.5C 366.289,299.649 366.789,296.649 366.5,293.5C 367.477,290.713 367.81,287.713 367.5,284.5C 367.5,283.5 367.5,282.5 367.5,281.5 Z"/></g>
<g><path style="opacity:1" fill="#8c1955" d="M 161.5,295.5 C 163.471,297.808 165.471,300.142 167.5,302.5C 167.414,303.496 167.748,304.329 168.5,305C 167.552,305.483 166.552,305.649 165.5,305.5C 165.033,307.711 164.033,309.711 162.5,311.5C 153.624,316.961 144.291,320.627 134.5,322.5C 132.11,320.733 130.443,318.4 129.5,315.5C 130.75,315.577 131.583,316.244 132,317.5C 143.001,310.931 153.834,305.431 164.5,301C 163.747,299.513 162.914,299.346 162,300.5C 161.506,298.866 161.34,297.199 161.5,295.5 Z"/></g>
<g><path style="opacity:1" fill="#4e2854" d="M 211.5,310.5 C 205.913,314.927 200.747,319.927 196,325.5C 195.667,326.833 195.333,328.167 195,329.5C 188.177,333.897 181.344,339.063 174.5,345C 170.168,344.837 165.834,344.337 161.5,343.5C 160.209,343.737 159.209,343.404 158.5,342.5C 165.876,343.919 171.876,341.752 176.5,336C 177.833,335.667 179.167,335.333 180.5,335C 180.167,334.667 179.833,334.333 179.5,334C 183.141,331.991 185.807,329.657 187.5,327C 196.238,322.254 203.738,316.088 210,308.5C 210.717,309.044 211.217,309.711 211.5,310.5 Z"/></g>
<g><path style="opacity:1" fill="#f7ac64" d="M 288.5,306.5 C 295.251,308.981 302.251,309.981 309.5,309.5C 309.5,309.833 309.5,310.167 309.5,310.5C 304.416,311.959 299.416,311.626 294.5,309.5C 293.833,309.833 293.167,310.167 292.5,310.5C 293.506,311.396 293.506,312.062 292.5,312.5C 291.646,311.478 290.646,310.645 289.5,310C 290.167,309.667 290.833,309.333 291.5,309C 290.429,308.148 289.429,307.315 288.5,306.5 Z"/></g>
<g><path style="opacity:1" fill="#492d54" d="M 216.5,301.5 C 217.833,302.167 219.167,302.833 220.5,303.5C 223.5,306.167 226.5,308.833 229.5,311.5C 228.833,311.5 228.167,311.5 227.5,311.5C 224.93,310.358 222.264,309.524 219.5,309C 223.404,312.297 222.738,313.297 217.5,312C 213.647,316.018 209.981,320.185 206.5,324.5C 205.573,326.113 204.739,327.779 204,329.5C 203.259,328.359 202.425,328.359 201.5,329.5C 194.811,335.193 188.144,340.86 181.5,346.5C 178.833,346.5 176.167,346.5 173.5,346.5C 169.163,346.416 165.163,345.416 161.5,343.5C 165.834,344.337 170.168,344.837 174.5,345C 181.344,339.063 188.177,333.897 195,329.5C 195.333,328.167 195.667,326.833 196,325.5C 200.747,319.927 205.913,314.927 211.5,310.5C 212.627,309.878 213.627,309.045 214.5,308C 212.323,306.798 209.989,306.298 207.5,306.5C 210.304,304.595 213.304,302.929 216.5,301.5 Z"/></g>
<g><path style="opacity:1" fill="#fd9e3c" d="M 276.5,299.5 C 280.535,301.848 284.535,304.182 288.5,306.5C 289.429,307.315 290.429,308.148 291.5,309C 290.833,309.333 290.167,309.667 289.5,310C 290.646,310.645 291.646,311.478 292.5,312.5C 293.506,312.062 293.506,311.396 292.5,310.5C 293.167,310.167 293.833,309.833 294.5,309.5C 299.416,311.626 304.416,311.959 309.5,310.5C 313.283,310.924 316.95,311.09 320.5,311C 318.781,312.057 316.947,312.89 315,313.5C 314.409,314.483 314.743,315.15 316,315.5C 322.312,315.771 328.812,315.771 335.5,315.5C 331.137,317.343 327.137,319.677 323.5,322.5C 323.167,322.5 322.833,322.5 322.5,322.5C 317.196,322.534 311.862,323.367 306.5,325C 306.833,325.333 307.167,325.667 307.5,326C 306.5,326.333 305.5,326.667 304.5,327C 304.833,327.333 305.167,327.667 305.5,328C 304.106,329.632 301.939,331.132 299,332.5C 298.583,331.244 297.75,330.577 296.5,330.5C 297.63,328.737 297.63,326.904 296.5,325C 297.235,322.564 298.568,320.564 300.5,319C 297.292,318.882 294.626,317.715 292.5,315.5C 291.41,316.391 291.41,317.391 292.5,318.5C 291.354,319.719 290.354,321.052 289.5,322.5C 288.476,321.147 287.143,320.48 285.5,320.5C 285.26,317.421 285.593,314.421 286.5,311.5C 284.366,306.516 280.699,303.683 275.5,303C 276.167,302.667 276.833,302.333 277.5,302C 276.748,301.329 276.414,300.496 276.5,299.5 Z"/></g>
<g><path style="opacity:1" fill="#f4af6b" d="M 366.5,304.5 C 365.508,310.831 363.175,316.498 359.5,321.5C 359.449,319.43 360.115,317.597 361.5,316C 361.355,315.228 361.022,314.561 360.5,314C 363.051,312.484 362.718,311.651 359.5,311.5C 362.5,309.833 364.833,307.5 366.5,304.5 Z"/></g>
<g><path style="opacity:1" fill="#7c1853" d="M 167.5,302.5 C 171.24,305.367 175.24,307.7 179.5,309.5C 177.364,310.719 175.031,311.552 172.5,312C 171.953,312.925 171.287,313.758 170.5,314.5C 166.295,315.852 162.462,317.852 159,320.5C 158.667,320.167 158.333,319.833 158,319.5C 157.626,320.416 157.126,321.25 156.5,322C 154.5,322.5 152.5,323 150.5,323.5C 147.511,325.863 144.344,327.863 141,329.5C 140.082,327.624 138.582,326.624 136.5,326.5C 135.4,325.395 134.733,324.062 134.5,322.5C 144.291,320.627 153.624,316.961 162.5,311.5C 164.033,309.711 165.033,307.711 165.5,305.5C 166.552,305.649 167.552,305.483 168.5,305C 167.748,304.329 167.414,303.496 167.5,302.5 Z"/></g>
<g><path style="opacity:1" fill="#413255" d="M 227.5,311.5 C 224.704,314.258 222.371,317.425 220.5,321C 218.783,322.559 216.783,323.392 214.5,323.5C 214.415,325.929 213.415,327.929 211.5,329.5C 208.567,330.93 206.067,332.93 204,335.5C 203.667,335.167 203.333,334.833 203,334.5C 201.387,336.777 199.22,338.277 196.5,339C 193.724,345.436 188.724,347.936 181.5,346.5C 188.144,340.86 194.811,335.193 201.5,329.5C 202.425,328.359 203.259,328.359 204,329.5C 204.739,327.779 205.573,326.113 206.5,324.5C 209.981,320.185 213.647,316.018 217.5,312C 222.738,313.297 223.404,312.297 219.5,309C 222.264,309.524 224.93,310.358 227.5,311.5 Z"/></g>
<g><path style="opacity:0.998" fill="#39445d" d="M 236.5,316.5 C 237.922,317.925 239.589,318.925 241.5,319.5C 243.112,321.333 244.778,323 246.5,324.5C 234.153,334.673 220.153,341.673 204.5,345.5C 205.542,342.527 207.375,340.193 210,338.5C 212.968,340.991 216.135,341.157 219.5,339C 212.872,337.213 213.206,336.213 220.5,336C 222.081,334.172 223.415,332.172 224.5,330C 225.449,329.383 226.282,329.549 227,330.5C 226.016,328.402 226.349,326.402 228,324.5C 230.723,321.607 233.557,318.94 236.5,316.5 Z"/></g>
<g><path style="opacity:1" fill="#572554" d="M 207.5,306.5 C 209.989,306.298 212.323,306.798 214.5,308C 213.627,309.045 212.627,309.878 211.5,310.5C 211.217,309.711 210.717,309.044 210,308.5C 203.738,316.088 196.238,322.254 187.5,327C 185.807,329.657 183.141,331.991 179.5,334C 179.833,334.333 180.167,334.667 180.5,335C 179.167,335.333 177.833,335.667 176.5,336C 171.876,341.752 165.876,343.919 158.5,342.5C 156.03,342.346 154.03,341.346 152.5,339.5C 159.986,335.523 167.653,331.69 175.5,328C 179.936,323.564 184.936,319.897 190.5,317C 192.167,314.667 194.167,312.667 196.5,311C 194.19,310.503 191.857,310.337 189.5,310.5C 195.453,309.515 201.453,308.182 207.5,306.5 Z"/></g>
<g><path style="opacity:1" fill="#fda640" d="M 322.5,322.5 C 322.719,323.675 322.386,324.675 321.5,325.5C 319.336,326.414 317.336,327.581 315.5,329C 316.451,329.718 316.617,330.551 316,331.5C 313.875,330.149 312.708,330.815 312.5,333.5C 312.818,334.647 313.484,335.481 314.5,336C 312.126,338.039 310.126,340.372 308.5,343C 309.91,343.368 310.91,344.201 311.5,345.5C 304.853,346.392 298.186,346.392 291.5,345.5C 290.5,344.833 289.5,344.167 288.5,343.5C 290.674,343.92 292.674,343.92 294.5,343.5C 293.167,342.5 293.167,341.5 294.5,340.5C 293.975,339.808 293.308,339.308 292.5,339C 293.815,337.605 293.481,336.605 291.5,336C 293.345,334.322 295.012,332.489 296.5,330.5C 297.75,330.577 298.583,331.244 299,332.5C 301.939,331.132 304.106,329.632 305.5,328C 305.167,327.667 304.833,327.333 304.5,327C 305.5,326.667 306.5,326.333 307.5,326C 307.167,325.667 306.833,325.333 306.5,325C 311.862,323.367 317.196,322.534 322.5,322.5 Z"/></g>
<g><path style="opacity:1" fill="#631e53" d="M 186.5,310.5 C 187.5,310.5 188.5,310.5 189.5,310.5C 191.857,310.337 194.19,310.503 196.5,311C 194.167,312.667 192.167,314.667 190.5,317C 184.936,319.897 179.936,323.564 175.5,328C 167.653,331.69 159.986,335.523 152.5,339.5C 147.929,337.262 143.929,334.262 140.5,330.5C 142.607,330.722 144.274,331.722 145.5,333.5C 147.585,332.353 149.085,333.02 150,335.5C 150.792,333.413 151.959,331.579 153.5,330C 160.951,326.792 168.284,323.292 175.5,319.5C 178.022,317.144 180.688,314.977 183.5,313C 182.833,312.333 182.167,311.667 181.5,311C 183.134,310.506 184.801,310.34 186.5,310.5 Z"/></g>
<g><path style="opacity:1" fill="#731c54" d="M 179.5,309.5 C 182.059,309.198 184.393,309.532 186.5,310.5C 184.801,310.34 183.134,310.506 181.5,311C 182.167,311.667 182.833,312.333 183.5,313C 180.688,314.977 178.022,317.144 175.5,319.5C 168.284,323.292 160.951,326.792 153.5,330C 151.959,331.579 150.792,333.413 150,335.5C 149.085,333.02 147.585,332.353 145.5,333.5C 144.274,331.722 142.607,330.722 140.5,330.5C 138.833,329.5 137.5,328.167 136.5,326.5C 138.582,326.624 140.082,327.624 141,329.5C 144.344,327.863 147.511,325.863 150.5,323.5C 152.5,323 154.5,322.5 156.5,322C 157.126,321.25 157.626,320.416 158,319.5C 158.333,319.833 158.667,320.167 159,320.5C 162.462,317.852 166.295,315.852 170.5,314.5C 171.287,313.758 171.953,312.925 172.5,312C 175.031,311.552 177.364,310.719 179.5,309.5 Z"/></g>
<g><path style="opacity:1" fill="#fcaa4c" d="M 359.5,311.5 C 362.718,311.651 363.051,312.484 360.5,314C 361.022,314.561 361.355,315.228 361.5,316C 360.115,317.597 359.449,319.43 359.5,321.5C 355.079,319.894 352.746,321.561 352.5,326.5C 350.567,326.729 348.9,327.562 347.5,329C 347.833,329.333 348.167,329.667 348.5,330C 347.552,330.483 346.552,330.649 345.5,330.5C 345.649,331.552 345.483,332.552 345,333.5C 343.542,332.253 342.042,332.253 340.5,333.5C 339.3,335.765 337.633,337.598 335.5,339C 336.993,340.156 336.826,340.99 335,341.5C 332.494,343.083 330.827,342.416 330,339.5C 329.415,341.661 328.582,343.661 327.5,345.5C 325.958,346.301 324.292,346.634 322.5,346.5C 315.852,347.139 309.186,347.473 302.5,347.5C 298.575,347.57 294.909,346.903 291.5,345.5C 298.186,346.392 304.853,346.392 311.5,345.5C 310.91,344.201 309.91,343.368 308.5,343C 310.126,340.372 312.126,338.039 314.5,336C 313.484,335.481 312.818,334.647 312.5,333.5C 312.708,330.815 313.875,330.149 316,331.5C 316.617,330.551 316.451,329.718 315.5,329C 317.336,327.581 319.336,326.414 321.5,325.5C 322.386,324.675 322.719,323.675 322.5,322.5C 322.833,322.5 323.167,322.5 323.5,322.5C 333.801,320.261 343.968,317.595 354,314.5C 355.299,314.966 356.799,314.966 358.5,314.5C 358.263,313.209 358.596,312.209 359.5,311.5 Z"/></g>
<g><path style="opacity:1" fill="#3c3956" d="M 227.5,311.5 C 228.167,311.5 228.833,311.5 229.5,311.5C 232.047,312.934 234.381,314.6 236.5,316.5C 233.557,318.94 230.723,321.607 228,324.5C 226.349,326.402 226.016,328.402 227,330.5C 226.282,329.549 225.449,329.383 224.5,330C 223.415,332.172 222.081,334.172 220.5,336C 213.206,336.213 212.872,337.213 219.5,339C 216.135,341.157 212.968,340.991 210,338.5C 207.375,340.193 205.542,342.527 204.5,345.5C 194.092,347.606 183.759,347.94 173.5,346.5C 176.167,346.5 178.833,346.5 181.5,346.5C 188.724,347.936 193.724,345.436 196.5,339C 199.22,338.277 201.387,336.777 203,334.5C 203.333,334.833 203.667,335.167 204,335.5C 206.067,332.93 208.567,330.93 211.5,329.5C 213.415,327.929 214.415,325.929 214.5,323.5C 216.783,323.392 218.783,322.559 220.5,321C 222.371,317.425 224.704,314.258 227.5,311.5 Z"/></g>
<g><path style="opacity:1" fill="#fab667" d="M 359.5,321.5 C 352.165,333.845 341.498,341.845 327.5,345.5C 328.582,343.661 329.415,341.661 330,339.5C 330.827,342.416 332.494,343.083 335,341.5C 336.826,340.99 336.993,340.156 335.5,339C 337.633,337.598 339.3,335.765 340.5,333.5C 342.042,332.253 343.542,332.253 345,333.5C 345.483,332.552 345.649,331.552 345.5,330.5C 346.552,330.649 347.552,330.483 348.5,330C 348.167,329.667 347.833,329.333 347.5,329C 348.9,327.562 350.567,326.729 352.5,326.5C 352.746,321.561 355.079,319.894 359.5,321.5 Z"/></g>
<g><path style="opacity:1" fill="#f3b26d" d="M 275.5,340.5 C 278.855,340.69 281.855,341.69 284.5,343.5C 281.084,343.472 278.084,342.472 275.5,340.5 Z"/></g>
<g><path style="opacity:0.725" fill="#efb775" d="M 284.5,343.5 C 285.833,343.5 287.167,343.5 288.5,343.5C 289.5,344.167 290.5,344.833 291.5,345.5C 288.848,345.59 286.515,344.924 284.5,343.5 Z"/></g>
<g><path style="opacity:0.188" fill="#efcba1" d="M 322.5,346.5 C 315.898,348.543 309.231,348.877 302.5,347.5C 309.186,347.473 315.852,347.139 322.5,346.5 Z"/></g>
</svg>
